<svg width="139" height="39" viewBox="0 0 139 39" fill="none" xmlns="http://www.w3.org/2000/svg">
<g opacity="0.4">
<g clip-path="url(#clip0)">
<path d="M18.6965 21.9874C17.9325 21.9874 17.1895 22.0511 16.4707 22.1729L17.5776 20.2556C17.9513 20.231 18.3255 20.2185 18.6965 20.2185C19.5657 20.2185 20.4502 20.2902 21.3052 20.4275L17.007 12.9827L9.85168 25.3759L8.8291 23.6047L16.9908 9.46826L17.0077 9.49738L17.0238 9.46952L26.8733 26.5295H24.8282L22.5262 22.5422C21.3267 22.1805 20.0445 21.9874 18.6965 21.9874Z" fill="white"/>
<path d="M27.5101 25.4054L17.9741 8.88867H20.0192L28.5326 23.6343L27.5101 25.4054Z" fill="white"/>
<path d="M18.0452 17.0372L14.1296 23.8193C15.5307 23.3966 17.18 23.2079 18.7359 23.2079C18.8616 23.2079 18.9877 23.2094 19.114 23.2124C19.998 23.2332 20.8909 23.3268 21.7466 23.4865L23.053 25.7492C21.7157 25.2628 20.2682 24.9767 18.7359 24.9767C16.4696 24.9767 14.3884 25.5372 12.5757 26.5123L12.6043 26.4613L12.5652 26.5291H10.52L17.0227 15.2661L18.0452 17.0372Z" fill="white"/>
<path fill-rule="evenodd" clip-rule="evenodd" d="M18.8266 35.5126C27.5267 35.5126 34.5795 28.4598 34.5795 19.7598C34.5795 11.0597 27.5267 4.00684 18.8266 4.00684C10.1266 4.00684 3.07373 11.0597 3.07373 19.7598C3.07373 28.4598 10.1266 35.5126 18.8266 35.5126ZM18.8651 33.5916C26.5254 33.5916 32.7353 27.3816 32.7353 19.7213C32.7353 12.061 26.5254 5.85108 18.8651 5.85108C11.2048 5.85108 4.99482 12.061 4.99482 19.7213C4.99482 27.3816 11.2048 33.5916 18.8651 33.5916Z" fill="white"/>
<path fill-rule="evenodd" clip-rule="evenodd" d="M18.8267 38.4326C29.2243 38.4326 37.6533 30.0036 37.6533 19.606C37.6533 9.20828 29.2243 0.779297 18.8267 0.779297C8.42899 0.779297 0 9.20828 0 19.606C0 30.0036 8.42899 38.4326 18.8267 38.4326ZM18.9035 36.6652C28.3251 36.6652 35.9628 29.0275 35.9628 19.606C35.9628 10.1844 28.3251 2.5467 18.9035 2.5467C9.48194 2.5467 1.84424 10.1844 1.84424 19.606C1.84424 29.0275 9.48194 36.6652 18.9035 36.6652Z" fill="white"/>
</g>
</g>
<path d="M58.7033 8.66114L50.2073 30.7651H53.9873L56.2553 24.6451H64.7153L66.9833 30.7651H70.7993L62.3033 8.66114H58.7033ZM60.4673 13.2331L63.4913 21.4051H57.4433L60.4673 13.2331ZM72.2947 22.7731C72.2947 27.7411 75.4267 31.1251 79.7467 31.1251C83.5627 31.1251 85.9747 28.9651 86.4427 25.7611H82.8427C82.5547 27.2011 81.3667 27.9931 79.7827 27.9931C77.3707 27.9931 75.8947 25.7971 75.8947 22.7731C75.8947 19.7491 77.3707 17.5531 79.7827 17.5531C81.3667 17.5531 82.5547 18.3451 82.8427 19.7851H86.4427C85.9747 16.5811 83.5627 14.4211 79.7467 14.4211C75.4267 14.4211 72.2947 17.8051 72.2947 22.7731ZM101.965 30.7651V20.2891C101.965 16.6531 99.5889 14.4211 95.5569 14.4211C92.2809 14.4211 89.7609 16.4731 89.2929 19.2091H92.7489C93.1449 18.0931 94.0449 17.4811 95.4849 17.4811C97.5369 17.4811 98.5449 18.7411 98.5449 20.3611V21.6571C97.8969 21.1891 96.2769 20.6851 94.8369 20.6851C91.3089 20.6851 88.6089 22.8091 88.6089 25.8331C88.6089 29.1091 91.3089 31.0531 94.5849 31.0531C96.3849 31.0531 98.0049 30.4051 98.5449 29.8651V30.7651H101.965ZM98.5449 26.5171C98.1489 27.5251 96.7089 28.1371 95.2689 28.1371C93.6489 28.1371 91.9569 27.4531 91.9569 25.8331C91.9569 24.2491 93.6489 23.5651 95.2689 23.5651C96.7089 23.5651 98.1489 24.1771 98.5449 25.1851V26.5171ZM109.811 7.36514H106.211V30.7651H109.811V7.36514ZM126.574 30.7651V20.2891C126.574 16.6531 124.198 14.4211 120.166 14.4211C116.89 14.4211 114.37 16.4731 113.902 19.2091H117.358C117.754 18.0931 118.654 17.4811 120.094 17.4811C122.146 17.4811 123.154 18.7411 123.154 20.3611V21.6571C122.506 21.1891 120.886 20.6851 119.446 20.6851C115.918 20.6851 113.218 22.8091 113.218 25.8331C113.218 29.1091 115.918 31.0531 119.194 31.0531C120.994 31.0531 122.614 30.4051 123.154 29.8651V30.7651H126.574ZM123.154 26.5171C122.758 27.5251 121.318 28.1371 119.878 28.1371C118.258 28.1371 116.566 27.4531 116.566 25.8331C116.566 24.2491 118.258 23.5651 119.878 23.5651C121.318 23.5651 122.758 24.1771 123.154 25.1851V26.5171Z" fill="#5F666E"/>
<defs>
<clipPath id="clip0">
<rect width="37.6533" height="37.6533" fill="white" transform="translate(0 0.779297)"/>
</clipPath>
</defs>
</svg>
