<svg width="214" height="48" viewBox="0 0 214 48" fill="none" xmlns="http://www.w3.org/2000/svg">
<g opacity="0.4">
<path fill-rule="evenodd" clip-rule="evenodd" d="M208.552 27.2306C208.552 24.447 206.919 22.3514 204.34 22.3514C201.76 22.3514 200.125 24.447 200.125 27.2306C200.125 30.0141 201.76 32.1097 204.34 32.1097C206.924 32.115 208.552 30.0193 208.552 27.2306ZM208.426 20.4832V13.191C208.426 12.7094 208.747 12.2913 209.211 12.1696L213.066 11.1377V35.8137H208.79V33.7182C207.714 35.2897 205.784 36.2105 203.368 36.2105C198.407 36.2105 195.501 32.2152 195.501 27.2356C195.501 22.2559 198.407 18.2606 203.368 18.2606C205.778 18.2553 207.546 19.303 208.426 20.4832ZM182.117 18.647V20.7427C182.903 19.2662 184.665 18.2502 187.211 18.2502C191.325 18.2502 193.512 21.0019 193.512 25.0978V35.8139H188.878V25.6271C188.878 23.6266 188.029 22.2508 185.972 22.2508C183.72 22.2508 182.481 23.6903 182.481 25.9869V35.8139H177.846V18.647H182.117ZM167.009 36.2105C162.015 36.2105 159.236 34.0462 159.236 28.479V18.6468H163.871V28.5427C163.871 30.9345 164.947 32.0457 167.004 32.0457C169.06 32.0457 170.136 30.9292 170.136 28.5427V18.6468H174.771V28.4737C174.782 34.0462 172.003 36.2105 167.009 36.2105ZM143.932 27.2306C143.932 30.3104 145.825 32.1097 148.272 32.1097C150.719 32.1097 152.612 30.3051 152.612 27.2306C152.612 24.156 150.719 22.3514 148.272 22.3514C145.831 22.3514 143.932 24.1507 143.932 27.2306ZM148.277 36.2108C142.793 36.2108 139.297 32.115 139.297 27.2359C139.297 22.3568 142.788 18.2608 148.277 18.2608C153.762 18.2608 157.258 22.3568 157.258 27.2359C157.253 32.115 153.762 36.2108 148.277 36.2108ZM125.169 27.2306C125.169 30.0141 126.804 32.1097 129.383 32.1097C131.961 32.1097 133.596 30.0141 133.596 27.2306C133.596 24.447 131.961 22.3514 129.383 22.3514C126.804 22.3514 125.169 24.447 125.169 27.2306ZM125.301 33.9828V41.1215C125.301 41.6032 124.98 42.0212 124.516 42.1428L120.666 43.159V18.647H124.943V20.7427C126.019 19.171 127.949 18.2502 130.364 18.2502C135.326 18.2502 138.232 22.2455 138.232 27.2252C138.232 32.2048 135.326 36.2001 130.364 36.2001C127.943 36.2107 126.182 35.163 125.301 33.9828ZM106.897 26.0504V35.8139H102.262V25.6271C102.262 23.7273 101.576 22.2508 99.5193 22.2508C97.3625 22.2508 96.1865 23.6585 96.1865 25.9552V35.8191H91.5512V18.647H95.8279V20.7427C96.6136 19.2662 98.3118 18.2502 100.759 18.2502C103.079 18.2502 104.74 19.1657 105.721 20.6738C107.224 19.0016 108.954 18.2502 111.4 18.2502C115.514 18.2502 117.602 21.1025 117.602 25.0978V35.8139H112.967V25.6271C112.967 23.7273 112.281 22.2508 110.224 22.2508C108.036 22.2508 106.897 23.6585 106.897 26.0504ZM76.0843 27.2306C76.0843 30.3104 77.9775 32.1097 80.4243 32.1097C82.8712 32.1097 84.7644 30.3051 84.7644 27.2306C84.7644 24.156 82.8712 22.3514 80.4243 22.3514C77.9775 22.3514 76.0843 24.1507 76.0843 27.2306ZM80.4247 36.2108C74.9403 36.2108 71.4442 32.115 71.4442 27.2359C71.4442 22.3568 74.935 18.2608 80.4247 18.2608C85.9143 18.2608 89.4054 22.3568 89.4054 27.2359C89.4054 32.115 85.909 36.2108 80.4247 36.2108ZM47.3916 24.1504C47.3916 16.8793 52.3856 12.0585 59.0459 12.0585C64.8256 12.0585 69.3976 15.4982 70.2783 21.1658H65.1842C64.4986 18.25 62.1467 16.6095 59.0459 16.6095C54.8008 16.6095 52.4173 19.557 52.4173 24.1451C52.4173 28.7331 54.8008 31.6806 59.0459 31.6806C62.1467 31.6806 64.4986 30.0402 65.1842 27.1243H70.2783C69.3976 32.792 64.8256 36.2316 59.0459 36.2316C52.3856 36.2422 47.3916 31.4266 47.3916 24.1504Z" fill="white"/>
<path fill-rule="evenodd" clip-rule="evenodd" d="M1.98344 36.8915C0.787558 36.1704 0.0561523 34.8866 0.0561523 33.5077V25.8088C0.0561523 25.5141 0.136233 25.2301 0.285718 24.9775C0.750187 24.188 1.78056 23.9198 2.58137 24.3828L20.2099 34.5128C21.2403 35.1075 21.8756 36.1916 21.8756 37.3703V45.3481C21.8756 45.7112 21.774 46.0743 21.582 46.3847C21 47.3215 19.7614 47.6162 18.8111 47.0425L1.98344 36.8915ZM28.2607 22.2726C29.291 22.8673 29.9264 23.9515 29.9264 25.1301V41.3172C29.9264 41.7961 29.6647 42.2381 29.243 42.4697L25.3831 44.6115C25.335 44.6378 25.2817 44.6589 25.2283 44.6747V35.6865C25.2283 34.5234 24.609 33.4447 23.5947 32.8448L8.11234 23.7146V13.5688C8.11234 13.2741 8.19243 12.9899 8.34191 12.7373C8.80637 11.9479 9.83676 11.6796 10.6376 12.1426L28.2607 22.2726ZM35.9752 10.3166C37.0109 10.906 37.6462 12.0006 37.6462 13.1793V36.8232C37.6462 37.3073 37.3739 37.7545 36.9416 37.9861L33.2844 39.9332V23.4725C33.2844 22.3096 32.6652 21.236 31.6562 20.636L15.8322 11.2796V1.65474C15.8322 1.36004 15.9122 1.07588 16.0564 0.823281C16.5209 0.0339267 17.5512 -0.234454 18.3521 0.223373L35.9752 10.3166Z" fill="white"/>
</g>
</svg>
