<svg width="222" height="43" viewBox="0 0 222 43" fill="none" xmlns="http://www.w3.org/2000/svg">
<g opacity="0.7" clip-path="url(#clip0)">
<path d="M9.69157 4.09668L42.2079 26.2987L34.1662 38.1864L1.6499 15.8096L9.69157 4.09668Z" fill="#83888E"/>
<path d="M42.2079 26.2986C39.4108 30.3194 29.9706 28.7461 21.0548 22.4526C11.9643 16.3339 7.06932 8.11742 9.69161 4.09658C12.4887 0.0757455 21.9289 1.64912 30.8447 7.9426C39.9353 13.8864 44.8302 22.2778 42.2079 26.2986Z" fill="#83888E"/>
<path d="M34.1664 38.0115C31.3693 42.0323 21.9291 40.459 13.0133 34.1655C4.09752 27.872 -0.972234 19.8303 1.82487 15.6347C4.62197 11.6138 14.0622 13.1872 22.978 19.4807C31.8937 25.7742 36.7887 33.9907 34.1664 38.0115Z" fill="#83888E"/>
<path d="M42.2079 26.2988L34.1662 38.1865C31.3691 42.2073 21.9289 40.4591 13.0131 34.3405C11.2649 33.1167 9.69153 31.893 8.11816 30.4945C9.3419 30.3196 10.9153 29.6204 12.4886 27.8722C15.2857 24.9003 16.6843 24.201 17.908 24.3758C19.1318 24.3758 20.5303 25.5995 22.803 28.5715C25.0756 31.5434 28.2223 32.4175 30.1454 30.8441C30.3202 30.6693 30.495 30.6693 30.6698 30.4945C32.2432 29.2707 32.7676 28.7463 35.7396 23.1521C36.4388 21.7535 38.8863 19.4809 42.2079 20.5298C43.082 22.8024 43.082 24.7254 42.2079 26.2988Z" fill="#5B656F"/>
<path fill-rule="evenodd" clip-rule="evenodd" d="M40.9845 25.5993C38.537 29.0957 29.9709 27.3475 21.7544 21.5785C13.3631 15.8095 8.46815 8.46708 10.9156 4.9707C13.3631 1.47432 21.9292 3.22251 30.1457 8.99154C38.3622 14.7606 43.2571 22.103 40.9845 25.5993ZM33.2924 20.3548C32.0687 22.103 27.8731 21.2289 23.6774 18.4318C19.6566 15.6347 17.2091 11.9635 18.4328 10.2153C19.6566 8.46708 23.8522 9.34117 28.0479 12.1383C32.0687 14.9354 34.5162 18.6066 33.2924 20.3548Z" fill="white"/>
<path d="M8.99273 8.11735C8.99273 7.94253 8.81791 7.76771 8.6431 7.94253C8.46828 8.11735 8.29346 8.11735 8.29346 8.29217C8.46828 8.81662 8.6431 9.16626 8.6431 9.5159C8.6431 9.69072 8.81791 9.86554 8.99273 9.69072C9.16755 9.69072 9.34237 9.5159 9.16755 9.34108C9.16755 8.99144 9.16755 8.64181 8.99273 8.11735Z" fill="white"/>
<path d="M9.86674 10.9142C9.86674 10.7394 9.69192 10.5646 9.5171 10.7394C9.34228 10.9142 9.34229 10.9142 9.34229 11.089C11.2653 15.4595 15.2861 20.1796 20.5307 23.676C20.7055 23.8508 20.8803 23.676 21.0552 23.676C21.23 23.5012 21.0552 23.3264 21.0552 23.1516C15.6358 19.6552 11.7897 15.1099 9.86674 10.9142Z" fill="white"/>
<path d="M31.0196 28.0464C30.8447 28.0464 30.6699 28.0464 30.6699 28.2212C30.6699 28.396 30.6699 28.5708 30.8447 28.5708C31.3692 28.7457 32.0685 28.9205 32.5929 29.0953C32.7678 29.0953 32.9426 29.0953 32.9426 28.9205C32.9426 28.7457 32.9426 28.5708 32.7678 28.5708C32.2433 28.396 31.544 28.2212 31.0196 28.0464Z" fill="white"/>
<path d="M34.166 28.7461C33.9912 28.7461 33.8164 28.9209 33.8164 29.0957C33.8164 29.2706 33.9912 29.4454 34.166 29.4454C35.5646 29.6202 37.138 29.795 38.3617 29.6202C38.5365 29.6202 38.7113 29.4454 38.7113 29.2706C38.7113 29.0957 38.5365 28.9209 38.3617 28.9209C36.9632 29.0957 35.5646 28.9209 34.166 28.7461Z" fill="white"/>
</g>
<path d="M58.6883 27.1691C59.4803 31.2731 62.8283 33.6491 67.5083 33.6491C72.0803 33.6491 75.3923 31.0931 75.3923 26.9531C75.3923 23.6411 73.1243 21.6251 69.6683 20.8331L65.8163 19.9331C63.8363 19.4651 62.9003 18.5291 62.9003 17.0531C62.9003 15.2171 64.5203 13.9931 66.8963 13.9931C69.5243 13.9931 70.9283 15.2891 71.5043 16.9451H75.2483C74.4563 13.2731 71.6483 10.8251 66.8603 10.8251C62.3963 10.8251 59.3363 13.6331 59.3363 17.3771C59.3363 20.9411 61.7843 22.5971 64.8443 23.3171L68.5883 24.2171C70.8923 24.7571 71.7923 25.6571 71.7923 27.2051C71.7923 29.2571 70.1003 30.4811 67.5083 30.4811C65.0963 30.4811 63.2243 29.4371 62.5043 27.1691H58.6883ZM92.1522 17.3051H88.5522V27.8171C88.1562 29.4011 86.7882 30.3731 85.2402 30.3731C83.1882 30.3731 82.2522 29.0771 82.2522 27.0971V17.3051H78.6522V27.7091C78.6522 31.2371 80.6322 33.6491 84.2682 33.6491C86.1402 33.6491 87.6882 32.7851 88.5522 31.7771V33.2891H92.1522V17.3051ZM95.5061 28.6811C95.9741 31.7771 98.5661 33.6491 102.31 33.6491C105.91 33.6491 108.538 31.7051 108.538 28.5371C108.538 26.1971 107.17 24.6491 104.434 24.0011L101.05 23.2091C99.8981 22.9211 99.3941 22.4531 99.3941 21.7331C99.3941 20.4731 100.69 19.8971 101.95 19.8971C103.606 19.8971 104.542 20.6171 104.866 21.6611H108.394C107.854 18.7451 105.73 16.9451 101.986 16.9451C98.4941 16.9451 95.9381 19.0691 95.9381 21.9491C95.9381 24.5771 97.6301 25.8011 99.8981 26.3411L103.21 27.1331C104.542 27.4571 105.082 27.9251 105.082 28.7891C105.082 30.0491 104.002 30.6971 102.346 30.6971C100.762 30.6971 99.5741 30.0131 99.1781 28.6811H95.5061ZM112.056 33.2891H115.656V22.7771C116.052 21.1931 117.456 20.2211 119.004 20.2211C121.056 20.2211 122.028 21.5171 122.028 23.4971V33.2891H125.628V22.8851C125.628 19.3571 123.612 16.9451 119.976 16.9451C118.104 16.9451 116.52 17.8091 115.656 18.8171V9.88906H112.056V33.2891ZM133.48 17.3051H129.88V33.2891H133.48V17.3051ZM133.912 12.4811C133.912 11.2571 132.868 10.2851 131.68 10.2851C130.492 10.2851 129.448 11.2571 129.448 12.4811C129.448 13.7051 130.492 14.6771 131.68 14.6771C132.868 14.6771 133.912 13.7051 133.912 12.4811ZM136.815 28.6811C137.283 31.7771 139.875 33.6491 143.619 33.6491C147.219 33.6491 149.847 31.7051 149.847 28.5371C149.847 26.1971 148.479 24.6491 145.743 24.0011L142.359 23.2091C141.207 22.9211 140.703 22.4531 140.703 21.7331C140.703 20.4731 141.999 19.8971 143.259 19.8971C144.915 19.8971 145.851 20.6171 146.175 21.6611H149.703C149.163 18.7451 147.039 16.9451 143.295 16.9451C139.803 16.9451 137.247 19.0691 137.247 21.9491C137.247 24.5771 138.939 25.8011 141.207 26.3411L144.519 27.1331C145.851 27.4571 146.391 27.9251 146.391 28.7891C146.391 30.0491 145.311 30.6971 143.655 30.6971C142.071 30.6971 140.883 30.0131 140.487 28.6811H136.815ZM164.209 17.3051H160.933L158.125 28.6451L155.029 17.3051H151.429L156.073 33.2891H159.673L162.517 22.1651L165.361 33.2891H168.961L173.605 17.3051H170.113L167.017 28.6451L164.209 17.3051ZM188.633 33.2891V22.8131C188.633 19.1771 186.257 16.9451 182.225 16.9451C178.949 16.9451 176.429 18.9971 175.961 21.7331H179.417C179.813 20.6171 180.713 20.0051 182.153 20.0051C184.205 20.0051 185.213 21.2651 185.213 22.8851V24.1811C184.565 23.7131 182.945 23.2091 181.505 23.2091C177.977 23.2091 175.277 25.3331 175.277 28.3571C175.277 31.6331 177.977 33.5771 181.253 33.5771C183.053 33.5771 184.673 32.9291 185.213 32.3891V33.2891H188.633ZM185.213 29.0411C184.817 30.0491 183.377 30.6611 181.937 30.6611C180.317 30.6611 178.625 29.9771 178.625 28.3571C178.625 26.7731 180.317 26.0891 181.937 26.0891C183.377 26.0891 184.817 26.7011 185.213 27.7091V29.0411ZM196.48 31.9211C197.2 32.8211 198.784 33.6491 200.548 33.6491C205.228 33.6491 207.964 29.7611 207.964 25.2971C207.964 20.8331 205.228 16.9451 200.548 16.9451C198.784 16.9451 197.2 17.7731 196.48 18.6731V17.3051H192.88V39.4091H196.48V31.9211ZM196.48 22.2731C197.092 21.0131 198.46 20.1491 199.936 20.1491C202.708 20.1491 204.364 22.3451 204.364 25.2971C204.364 28.2491 202.708 30.4451 199.936 30.4451C198.46 30.4451 197.092 29.5811 196.48 28.3211V22.2731Z" fill="#5F666E"/>
<defs>
<clipPath id="clip0">
<rect width="41.9566" height="41.9566" fill="white" transform="translate(0.950684 0.0756836)"/>
</clipPath>
</defs>
</svg>
