<svg width="1360" height="1208" viewBox="0 0 1360 1208" fill="none" xmlns="http://www.w3.org/2000/svg">
<g opacity="0.4">
<mask id="mask0" mask-type="alpha" maskUnits="userSpaceOnUse" x="0" y="0" width="1360" height="1208">
<rect width="1360" height="1208" fill="url(#paint0_linear)"/>
</mask>
<g mask="url(#mask0)">
<rect x="359.125" y="273.179" width="73.0416" height="72.2773" stroke="#799FBB" stroke-opacity="0.5" stroke-width="40"/>
<path opacity="0.212835" d="M339 53H452V253H339V53Z" fill="url(#paint1_linear)"/>
<rect x="339.125" y="922.59" width="113.042" height="226.083" transform="rotate(-90 339.125 922.59)" fill="#35404C"/>
<rect width="113.042" height="337.955" transform="matrix(-1 0 0 1 1017.37 138.081)" fill="#35404C"/>
<rect x="113" y="56" width="113" height="309" fill="url(#paint2_linear)"/>
<rect x="791.291" y="590.248" width="113.042" height="577.642" fill="url(#paint3_linear)"/>
<path d="M792 478H681V56H792L792 478Z" fill="url(#paint4_linear)"/>
<path d="M1130 266H1242V60H1130V266Z" fill="url(#paint5_linear)"/>
<ellipse cx="1073.89" cy="224.932" rx="28.2604" ry="28.0693" fill="#F07F53" fill-opacity="0.8"/>
<rect x="226.083" y="365.295" width="113.042" height="444.253" fill="#35404C"/>
<rect y="806.157" width="113.042" height="369.646" fill="url(#paint6_linear)"/>
<rect x="1246.85" y="809.548" width="113.042" height="369.646" fill="url(#paint7_linear)"/>
<rect x="681" y="477" width="111" height="112" fill="#35404C"/>
<rect x="678.25" y="696.507" width="113.042" height="112.277" fill="#35404C"/>
<rect width="113.042" height="112.277" transform="matrix(-1 0 0 1 1130.42 265.818)" fill="#35404C"/>
<rect y="253.384" width="113.042" height="112.277" fill="#35404C"/>
<rect x="113.042" y="586.295" width="113.042" height="112.277" fill="#35404C"/>
<rect y="697.79" width="113.042" height="112.277" fill="#35404C"/>
<rect x="1017.37" y="588.888" width="113.042" height="112.277" fill="#35404C"/>
<rect x="1017.37" y="698.92" width="113.042" height="112.277" fill="#35404C"/>
<rect x="1130.42" y="476.075" width="226.083" height="113.042" fill="#35404C"/>
<rect x="339.125" y="586.856" width="113.042" height="113.042" fill="#35404C"/>
<rect x="1130.42" y="698.92" width="229.474" height="112.277" fill="#35404C"/>
<ellipse cx="169.562" cy="542.579" rx="28.2604" ry="28.0693" fill="#F07F53" fill-opacity="0.8"/>
<g opacity="0.596596" filter="url(#filter0_d)">
<path d="M395.646 365.457V533.15H622.314V1076.33" stroke="url(#paint8_linear)" stroke-width="2"/>
</g>
</g>
</g>
<defs>
<filter id="filter0_d" x="374.646" y="345.457" width="268.668" height="750.87" filterUnits="userSpaceOnUse" color-interpolation-filters="sRGB">
<feFlood flood-opacity="0" result="BackgroundImageFix"/>
<feColorMatrix in="SourceAlpha" type="matrix" values="0 0 0 0 0 0 0 0 0 0 0 0 0 0 0 0 0 0 127 0"/>
<feOffset/>
<feGaussianBlur stdDeviation="10"/>
<feColorMatrix type="matrix" values="0 0 0 0 1 0 0 0 0 1 0 0 0 0 1 0 0 0 1 0"/>
<feBlend mode="normal" in2="BackgroundImageFix" result="effect1_dropShadow"/>
<feBlend mode="normal" in="SourceGraphic" in2="effect1_dropShadow" result="shape"/>
</filter>
<linearGradient id="paint0_linear" x1="680" y1="0" x2="680" y2="1208" gradientUnits="userSpaceOnUse">
<stop offset="0.442708" stop-color="white"/>
<stop offset="0.787729" stop-color="#C4C4C4" stop-opacity="0"/>
</linearGradient>
<linearGradient id="paint1_linear" x1="346.846" y1="80.7726" x2="346.846" y2="253" gradientUnits="userSpaceOnUse">
<stop stop-color="#1D252E"/>
<stop offset="1" stop-color="#87ABC5"/>
</linearGradient>
<linearGradient id="paint2_linear" x1="169.5" y1="365" x2="169.5" y2="25.6518" gradientUnits="userSpaceOnUse">
<stop stop-color="#35404C"/>
<stop offset="1" stop-color="#35404C" stop-opacity="0"/>
</linearGradient>
<linearGradient id="paint3_linear" x1="847.812" y1="590.248" x2="847.812" y2="1183.15" gradientUnits="userSpaceOnUse">
<stop stop-color="#35404C"/>
<stop offset="1" stop-color="#35404C" stop-opacity="0"/>
</linearGradient>
<linearGradient id="paint4_linear" x1="736.5" y1="478" x2="736.171" y2="16.0344" gradientUnits="userSpaceOnUse">
<stop stop-color="#35404C"/>
<stop offset="1" stop-color="#35404C" stop-opacity="0"/>
</linearGradient>
<linearGradient id="paint5_linear" x1="1186" y1="266" x2="1186.08" y2="40.4907" gradientUnits="userSpaceOnUse">
<stop stop-color="#35404C"/>
<stop offset="1" stop-color="#35404C" stop-opacity="0"/>
</linearGradient>
<linearGradient id="paint6_linear" x1="56.5208" y1="806.157" x2="56.5208" y2="1175.8" gradientUnits="userSpaceOnUse">
<stop stop-color="#35404C"/>
<stop offset="1" stop-color="#35404C" stop-opacity="0"/>
</linearGradient>
<linearGradient id="paint7_linear" x1="1303.37" y1="809.548" x2="1303.37" y2="1179.19" gradientUnits="userSpaceOnUse">
<stop stop-color="#35404C"/>
<stop offset="1" stop-color="#35404C" stop-opacity="0"/>
</linearGradient>
<linearGradient id="paint8_linear" x1="733.64" y1="1144.66" x2="733.64" y2="365.457" gradientUnits="userSpaceOnUse">
<stop stop-color="#D7E3E9" stop-opacity="0.01"/>
<stop offset="1" stop-color="#AEC3CF"/>
</linearGradient>
</defs>
</svg>
