<svg width="667" height="385" viewBox="0 0 667 385" fill="none" xmlns="http://www.w3.org/2000/svg">
<rect y="57" width="667" height="327" fill="url(#paint0_linear)" fill-opacity="0.2"/>
<path d="M167.328 318.018C168.533 317.899 169.606 317.673 170.658 317.205C170.899 317.181 171.009 317.048 171.36 316.892C171.951 316.713 172.412 316.424 172.872 316.136C173.223 315.98 173.332 315.847 173.683 315.691C174.033 315.535 174.253 315.271 174.604 315.115C176.204 313.985 177.522 312.398 178.707 310.701C178.927 310.437 179.015 310.064 179.234 309.799C179.542 309.161 179.74 308.656 179.938 308.15C180.708 305.887 181.217 303.408 180.872 300.89C180.376 296.687 178.237 293.132 175.22 290.635C172.072 288.029 167.957 286.855 163.642 287.523C155.122 288.727 148.998 296.377 150.121 304.892C150.509 307.891 151.73 310.687 153.631 312.929C156.996 316.607 162.159 318.649 167.328 318.018Z" fill="url(#paint1_linear)"/>
<path d="M172.245 292.056C171.718 291.62 171.082 291.317 170.446 291.013" stroke="#7CA1BD" stroke-width="1.15551" stroke-miterlimit="10" stroke-linecap="round" stroke-linejoin="round"/>
<path d="M168.085 314.818C168.674 314.639 169.263 314.46 169.743 314.412C169.983 314.389 170.093 314.257 170.332 314.233C171.031 313.922 171.729 313.612 172.187 313.324C172.406 313.061 172.645 313.037 172.864 312.773C174.108 311.803 175.332 310.593 176.054 309.19C176.273 308.927 176.251 308.687 176.47 308.423C176.667 307.919 176.995 307.524 177.083 307.152C177.477 306.145 177.631 305.161 177.786 304.178" stroke="#AEC3CF" stroke-width="1.15551" stroke-miterlimit="10" stroke-linecap="round" stroke-linejoin="round"/>
<path d="M168.076 290.344C166.723 290.114 165.391 290.124 163.95 290.266C157.486 291.145 152.892 296.687 152.967 302.98" stroke="#7CA1BD" stroke-width="1.15551" stroke-miterlimit="10" stroke-linecap="round" stroke-linejoin="round"/>
<path d="M89.7614 349.022C88.7236 350.062 87.6861 350.894 86.4407 351.518C86.2331 351.726 86.0252 351.727 85.6101 351.935C84.9874 352.351 84.3649 352.558 83.7422 352.766C83.327 352.974 83.1195 352.974 82.7043 353.182C82.2892 353.39 81.8738 353.39 81.4587 353.598C79.1755 354.222 76.6846 354.223 74.1938 354.015C73.7787 354.015 73.3639 353.806 72.9487 353.806C72.1185 353.598 71.4957 353.39 70.873 353.182C68.1747 352.142 65.4761 350.686 63.4004 348.398C59.8717 344.654 58.2112 339.87 58.2112 335.086C58.2112 330.094 60.2867 325.31 64.2305 321.774C71.9105 314.702 83.742 314.91 90.7993 322.606C93.2901 325.31 94.9507 328.638 95.5734 332.174C96.4037 338.207 94.3279 344.654 89.7614 349.022Z" fill="url(#paint2_linear)"/>
<path d="M61.7395 333.423C61.7395 332.591 61.9474 331.76 62.1554 330.928" stroke="#7CA1BD" stroke-width="1.40337" stroke-miterlimit="10" stroke-linecap="round" stroke-linejoin="round"/>
<path d="M86.2326 347.151C85.6099 347.567 84.9871 347.984 84.572 348.4C84.3644 348.608 84.1568 348.608 83.9492 348.816C83.1189 349.232 82.2889 349.648 81.6662 349.856C81.2511 349.856 81.0435 350.063 80.6284 350.063C78.7603 350.479 76.6845 350.687 74.8164 350.271C74.4013 350.271 74.1937 350.063 73.7786 350.063C73.1558 349.855 72.533 349.856 72.1179 349.648C70.8725 349.232 69.835 348.607 68.7971 347.983" stroke="#AEC3CF" stroke-width="1.40337" stroke-miterlimit="10" stroke-linecap="round" stroke-linejoin="round"/>
<path d="M63.4004 328.223C64.2307 326.767 65.2685 325.519 66.5139 324.271C72.3258 318.863 81.0438 318.864 86.8557 323.856" stroke="#7CA1BD" stroke-width="1.40337" stroke-miterlimit="10" stroke-linecap="round" stroke-linejoin="round"/>
<path d="M106.941 353.557C105.149 353.38 103.552 353.042 101.987 352.346C101.628 352.311 101.465 352.114 100.943 351.882C100.063 351.614 99.378 351.185 98.693 350.756C98.1713 350.524 98.0086 350.327 97.4868 350.094C96.9651 349.862 96.638 349.469 96.1163 349.236C93.7348 347.556 91.7751 345.194 90.011 342.67C89.6844 342.276 89.5535 341.721 89.2269 341.328C88.769 340.379 88.4749 339.626 88.1803 338.874C87.0335 335.507 86.2766 331.818 86.7908 328.073C87.5282 321.819 90.7108 316.529 95.1997 312.814C99.8838 308.937 106.005 307.19 112.425 308.185C125.102 309.976 134.214 321.358 132.544 334.027C131.966 338.489 130.15 342.649 127.321 345.985C122.315 351.457 114.632 354.495 106.941 353.557Z" fill="url(#paint3_linear)"/>
<path d="M99.6254 314.926C100.409 314.277 101.356 313.827 102.303 313.376" stroke="#7CA1BD" stroke-width="1.71924" stroke-miterlimit="10" stroke-linecap="round" stroke-linejoin="round"/>
<path d="M105.815 348.792C104.938 348.525 104.062 348.259 103.348 348.189C102.991 348.153 102.828 347.958 102.471 347.922C101.432 347.46 100.393 346.997 99.7109 346.57C99.3858 346.178 99.0296 346.142 98.7045 345.75C96.8526 344.306 95.0322 342.506 93.9577 340.419C93.6326 340.027 93.6645 339.67 93.3394 339.277C93.046 338.528 92.5576 337.94 92.4268 337.387C91.8401 335.888 91.6111 334.424 91.3812 332.961" stroke="#AEC3CF" stroke-width="1.71924" stroke-miterlimit="10" stroke-linecap="round" stroke-linejoin="round"/>
<path d="M105.828 312.377C107.841 312.035 109.822 312.05 111.967 312.261C121.584 313.57 128.42 321.816 128.308 331.179" stroke="#7CA1BD" stroke-width="1.71924" stroke-miterlimit="10" stroke-linecap="round" stroke-linejoin="round"/>
<path d="M144.042 339.588C142.249 339.411 140.652 339.074 139.087 338.377C138.729 338.342 138.565 338.145 138.043 337.913C137.163 337.645 136.478 337.216 135.793 336.787C135.271 336.555 135.109 336.358 134.587 336.126C134.065 335.893 133.738 335.5 133.216 335.268C130.835 333.587 128.875 331.225 127.111 328.701C126.785 328.308 126.654 327.753 126.327 327.359C125.869 326.41 125.575 325.657 125.28 324.905C124.134 321.539 123.377 317.849 123.891 314.104C124.628 307.85 127.811 302.56 132.3 298.845C136.984 294.968 143.105 293.222 149.525 294.216C162.202 296.007 171.314 307.389 169.644 320.059C169.066 324.521 167.25 328.68 164.422 332.017C159.415 337.488 151.732 340.526 144.042 339.588Z" fill="url(#paint4_linear)"/>
<path d="M136.726 300.96C137.51 300.312 138.456 299.861 139.404 299.41" stroke="#7CA1BD" stroke-width="1.71924" stroke-miterlimit="10" stroke-linecap="round" stroke-linejoin="round"/>
<path d="M142.915 334.827C142.038 334.561 141.162 334.294 140.448 334.224C140.091 334.189 139.928 333.993 139.571 333.958C138.532 333.495 137.493 333.033 136.811 332.605C136.486 332.213 136.13 332.177 135.805 331.785C133.953 330.342 132.132 328.541 131.058 326.454C130.733 326.062 130.765 325.705 130.44 325.313C130.146 324.563 129.658 323.975 129.527 323.422C128.94 321.923 128.711 320.46 128.481 318.996" stroke="#AEC3CF" stroke-width="1.71924" stroke-miterlimit="10" stroke-linecap="round" stroke-linejoin="round"/>
<path d="M142.929 298.412C144.943 298.07 146.924 298.085 149.068 298.296C158.685 299.605 165.522 307.851 165.409 317.214" stroke="#7CA1BD" stroke-width="1.71924" stroke-miterlimit="10" stroke-linecap="round" stroke-linejoin="round"/>
<path d="M187.843 361.49C186.051 361.314 184.454 360.976 182.888 360.28C182.53 360.244 182.366 360.048 181.844 359.815C180.964 359.548 180.28 359.119 179.595 358.69C179.073 358.458 178.91 358.26 178.388 358.028C177.867 357.796 177.54 357.402 177.018 357.17C174.636 355.49 172.677 353.128 170.913 350.604C170.586 350.21 170.455 349.655 170.129 349.261C169.671 348.313 169.377 347.56 169.082 346.808C167.935 343.441 167.178 339.752 167.692 336.006C168.43 329.752 171.612 324.463 176.101 320.747C180.785 316.871 186.907 315.124 193.327 316.118C206.004 317.91 215.116 329.292 213.446 341.961C212.868 346.423 211.051 350.582 208.223 353.919C203.216 359.391 195.534 362.429 187.843 361.49Z" fill="url(#paint5_linear)"/>
<path d="M180.527 322.861C181.311 322.212 182.258 321.761 183.205 321.31" stroke="#7CA1BD" stroke-width="1.71924" stroke-miterlimit="10" stroke-linecap="round" stroke-linejoin="round"/>
<path d="M186.717 356.728C185.841 356.462 184.964 356.195 184.25 356.125C183.893 356.09 183.73 355.894 183.373 355.859C182.334 355.396 181.295 354.934 180.613 354.506C180.288 354.114 179.932 354.078 179.607 353.686C177.755 352.243 175.935 350.443 174.86 348.356C174.535 347.963 174.567 347.606 174.242 347.214C173.948 346.465 173.46 345.877 173.329 345.323C172.742 343.825 172.513 342.361 172.284 340.898" stroke="#AEC3CF" stroke-width="1.71924" stroke-miterlimit="10" stroke-linecap="round" stroke-linejoin="round"/>
<path d="M186.73 320.312C188.743 319.969 190.724 319.984 192.869 320.196C202.486 321.504 209.322 329.75 209.21 339.114" stroke="#7CA1BD" stroke-width="1.71924" stroke-miterlimit="10" stroke-linecap="round" stroke-linejoin="round"/>
<path d="M97.8273 324.999C96.6227 324.88 95.5492 324.653 94.4973 324.185C94.2564 324.161 94.1462 324.029 93.7956 323.873C93.204 323.693 92.7438 323.405 92.2835 323.116C91.9328 322.96 91.8235 322.828 91.4728 322.672C91.1222 322.516 90.9023 322.251 90.5517 322.095C88.951 320.966 87.6339 319.378 86.4482 317.682C86.2288 317.417 86.1408 317.044 85.9213 316.78C85.6135 316.142 85.4159 315.636 85.2178 315.131C84.4471 312.868 83.9384 310.388 84.284 307.871C84.7796 303.668 86.9186 300.112 89.9357 297.615C93.0839 295.01 97.1981 293.836 101.513 294.504C110.033 295.708 116.157 303.358 115.035 311.873C114.647 314.872 113.426 317.667 111.525 319.91C108.16 323.588 102.996 325.629 97.8273 324.999Z" fill="url(#paint6_linear)"/>
<path d="M92.9105 299.034C93.4371 298.598 94.0731 298.295 94.7096 297.992" stroke="#7CA1BD" stroke-width="1.15551" stroke-miterlimit="10" stroke-linecap="round" stroke-linejoin="round"/>
<path d="M97.0702 321.796C96.4812 321.617 95.892 321.438 95.4122 321.391C95.1723 321.367 95.0627 321.235 94.8228 321.212C94.1245 320.901 93.4263 320.59 92.9679 320.303C92.7494 320.039 92.51 320.015 92.2915 319.752C91.0468 318.781 89.8233 317.572 89.1012 316.169C88.8826 315.905 88.9041 315.665 88.6856 315.401C88.4884 314.898 88.1602 314.503 88.0722 314.131C87.6779 313.124 87.524 312.14 87.3695 311.156" stroke="#AEC3CF" stroke-width="1.15551" stroke-miterlimit="10" stroke-linecap="round" stroke-linejoin="round"/>
<path d="M97.0791 297.322C98.4322 297.092 99.7638 297.102 101.205 297.244C107.669 298.124 112.263 303.666 112.188 309.959" stroke="#7CA1BD" stroke-width="1.15551" stroke-miterlimit="10" stroke-linecap="round" stroke-linejoin="round"/>
<path d="M103.052 301.487C101.848 301.368 100.774 301.141 99.7224 300.673C99.4815 300.65 99.3713 300.517 99.0206 300.361C98.4291 300.181 97.9689 299.893 97.5085 299.605C97.1579 299.449 97.0485 299.316 96.6979 299.16C96.3472 299.004 96.1274 298.74 95.7767 298.583C94.1761 297.454 92.859 295.866 91.6733 294.17C91.4539 293.906 91.3658 293.533 91.1464 293.268C90.8386 292.63 90.6409 292.124 90.4429 291.619C89.6722 289.356 89.1635 286.876 89.509 284.359C90.0047 280.156 92.1437 276.601 95.1608 274.104C98.309 271.498 102.423 270.324 106.738 270.992C115.258 272.196 121.383 279.846 120.26 288.361C119.872 291.36 118.651 294.156 116.75 296.398C113.385 300.076 108.221 302.118 103.052 301.487Z" fill="url(#paint7_linear)"/>
<path d="M98.1354 275.524C98.6619 275.088 99.298 274.785 99.9345 274.482" stroke="#7CA1BD" stroke-width="1.15551" stroke-miterlimit="10" stroke-linecap="round" stroke-linejoin="round"/>
<path d="M102.295 298.286C101.706 298.107 101.117 297.928 100.637 297.881C100.397 297.857 100.288 297.726 100.048 297.702C99.3494 297.391 98.6512 297.08 98.1928 296.793C97.9742 296.529 97.7349 296.505 97.5163 296.242C96.2717 295.272 95.0482 294.062 94.326 292.659C94.1075 292.395 94.129 292.155 93.9104 291.892C93.7132 291.388 93.385 290.993 93.2971 290.621C92.9027 289.614 92.7488 288.63 92.5943 287.646" stroke="#AEC3CF" stroke-width="1.15551" stroke-miterlimit="10" stroke-linecap="round" stroke-linejoin="round"/>
<path d="M102.304 273.813C103.657 273.582 104.989 273.593 106.43 273.735C112.894 274.614 117.488 280.156 117.413 286.449" stroke="#7CA1BD" stroke-width="1.15551" stroke-miterlimit="10" stroke-linecap="round" stroke-linejoin="round"/>
<path d="M78.235 322.385C77.0305 322.267 75.957 322.04 74.905 321.572C74.6641 321.548 74.554 321.416 74.2033 321.26C73.6117 321.08 73.1516 320.792 72.6912 320.503C72.3405 320.347 72.2312 320.215 71.8805 320.058C71.5299 319.902 71.31 319.638 70.9594 319.482C69.3588 318.352 68.0416 316.765 66.856 315.069C66.6365 314.804 66.5485 314.431 66.329 314.166C66.0212 313.529 65.8236 313.023 65.6256 312.517C64.8548 310.255 64.3461 307.775 64.6917 305.258C65.1873 301.054 67.3263 297.499 70.3434 295.002C73.4916 292.396 77.6058 291.222 81.9208 291.891C90.4411 293.095 96.5651 300.744 95.4427 309.26C95.0543 312.259 93.8333 315.054 91.9325 317.297C88.5673 320.974 83.404 323.016 78.235 322.385Z" fill="url(#paint8_linear)"/>
<path d="M73.3182 296.422C73.8448 295.986 74.4809 295.683 75.1174 295.379" stroke="#7CA1BD" stroke-width="1.15551" stroke-miterlimit="10" stroke-linecap="round" stroke-linejoin="round"/>
<path d="M77.478 319.184C76.8889 319.005 76.2997 318.826 75.8199 318.778C75.58 318.755 75.4704 318.623 75.2305 318.599C74.5322 318.289 73.8341 317.978 73.3756 317.691C73.1571 317.427 72.9177 317.403 72.6992 317.139C71.4545 316.169 70.231 314.959 69.5089 313.557C69.2903 313.293 69.3118 313.053 69.0933 312.789C68.8961 312.286 68.5679 311.89 68.48 311.519C68.0856 310.511 67.9317 309.528 67.7772 308.544" stroke="#AEC3CF" stroke-width="1.15551" stroke-miterlimit="10" stroke-linecap="round" stroke-linejoin="round"/>
<path d="M77.4869 294.71C78.84 294.48 80.1716 294.49 81.6127 294.632C88.0764 295.511 92.671 301.053 92.5954 307.347" stroke="#7CA1BD" stroke-width="1.15551" stroke-miterlimit="10" stroke-linecap="round" stroke-linejoin="round"/>
<path d="M156.961 350.734C155.756 350.615 154.683 350.388 153.631 349.92C153.39 349.897 153.28 349.764 152.929 349.608C152.337 349.429 151.877 349.14 151.417 348.852C151.066 348.696 150.957 348.563 150.606 348.407C150.255 348.251 150.036 347.987 149.685 347.831C148.084 346.701 146.767 345.113 145.582 343.417C145.362 343.153 145.274 342.78 145.055 342.515C144.747 341.877 144.549 341.371 144.351 340.866C143.58 338.603 143.072 336.123 143.417 333.606C143.913 329.403 146.052 325.848 149.069 323.351C152.217 320.745 156.331 319.571 160.646 320.239C169.167 321.443 175.291 329.093 174.168 337.608C173.78 340.607 172.559 343.403 170.658 345.645C167.293 349.323 162.13 351.365 156.961 350.734Z" fill="url(#paint9_linear)"/>
<path d="M152.044 324.772C152.57 324.336 153.206 324.033 153.843 323.73" stroke="#7CA1BD" stroke-width="1.15551" stroke-miterlimit="10" stroke-linecap="round" stroke-linejoin="round"/>
<path d="M156.204 347.534C155.614 347.355 155.025 347.176 154.545 347.129C154.306 347.105 154.196 346.974 153.956 346.95C153.258 346.639 152.56 346.328 152.101 346.041C151.883 345.777 151.643 345.753 151.425 345.49C150.18 344.52 148.957 343.31 148.234 341.907C148.016 341.643 148.037 341.403 147.819 341.14C147.622 340.636 147.293 340.241 147.206 339.869C146.811 338.862 146.657 337.878 146.503 336.895" stroke="#AEC3CF" stroke-width="1.15551" stroke-miterlimit="10" stroke-linecap="round" stroke-linejoin="round"/>
<path d="M156.212 323.059C157.565 322.828 158.897 322.839 160.338 322.981C166.802 323.86 171.396 329.402 171.321 335.695" stroke="#7CA1BD" stroke-width="1.15551" stroke-miterlimit="10" stroke-linecap="round" stroke-linejoin="round"/>
<path d="M137.278 313.645C138.482 313.764 139.556 313.99 140.608 314.459C140.849 314.482 140.959 314.615 141.31 314.771C141.901 314.95 142.361 315.239 142.822 315.527C143.172 315.683 143.282 315.816 143.632 315.972C143.983 316.128 144.203 316.392 144.554 316.548C146.154 317.678 147.471 319.265 148.657 320.962C148.876 321.226 148.964 321.599 149.184 321.864C149.492 322.502 149.689 323.008 149.887 323.513C150.658 325.776 151.167 328.256 150.821 330.773C150.326 334.976 148.187 338.531 145.17 341.028C142.021 343.634 137.907 344.808 133.592 344.14C125.072 342.936 118.948 335.286 120.07 326.771C120.459 323.772 121.68 320.976 123.58 318.734C126.946 315.056 132.109 313.014 137.278 313.645Z" fill="url(#paint10_linear)"/>
<path d="M142.195 339.607C141.668 340.043 141.032 340.346 140.396 340.65" stroke="#7CA1BD" stroke-width="1.15551" stroke-miterlimit="10" stroke-linecap="round" stroke-linejoin="round"/>
<path d="M138.035 316.845C138.624 317.025 139.214 317.204 139.693 317.251C139.933 317.275 140.043 317.406 140.283 317.43C140.981 317.741 141.679 318.051 142.138 318.339C142.356 318.602 142.595 318.626 142.814 318.89C144.059 319.86 145.282 321.07 146.004 322.473C146.223 322.736 146.201 322.977 146.42 323.24C146.617 323.744 146.945 324.139 147.033 324.511C147.428 325.518 147.582 326.502 147.736 327.485" stroke="#AEC3CF" stroke-width="1.15551" stroke-miterlimit="10" stroke-linecap="round" stroke-linejoin="round"/>
<path d="M138.026 341.319C136.673 341.549 135.341 341.539 133.9 341.397C127.437 340.518 122.842 334.976 122.918 328.683" stroke="#7CA1BD" stroke-width="1.15551" stroke-miterlimit="10" stroke-linecap="round" stroke-linejoin="round"/>
<path d="M128.518 314.233C129.723 314.114 130.796 313.887 131.848 313.419C132.089 313.396 132.199 313.263 132.55 313.107C133.142 312.928 133.602 312.639 134.062 312.351C134.413 312.195 134.522 312.062 134.873 311.906C135.224 311.75 135.443 311.486 135.794 311.33C137.395 310.2 138.712 308.612 139.897 306.916C140.117 306.652 140.205 306.279 140.424 306.014C140.732 305.376 140.93 304.87 141.128 304.365C141.899 302.102 142.407 299.622 142.062 297.105C141.566 292.902 139.427 289.347 136.41 286.85C133.262 284.244 129.148 283.07 124.833 283.738C116.312 284.942 110.188 292.592 111.311 301.107C111.699 304.106 112.92 306.902 114.821 309.144C118.186 312.822 123.349 314.864 128.518 314.233Z" fill="url(#paint11_linear)"/>
<path d="M133.434 288.27C132.907 287.834 132.271 287.531 131.635 287.227" stroke="#7CA1BD" stroke-width="1.15551" stroke-miterlimit="10" stroke-linecap="round" stroke-linejoin="round"/>
<path d="M129.274 311.032C129.864 310.852 130.453 310.673 130.933 310.626C131.172 310.602 131.282 310.471 131.522 310.447C132.22 310.136 132.918 309.825 133.377 309.538C133.595 309.275 133.835 309.25 134.053 308.987C135.298 308.017 136.521 306.807 137.244 305.404C137.462 305.141 137.441 304.9 137.659 304.637C137.856 304.133 138.185 303.738 138.272 303.366C138.667 302.359 138.821 301.375 138.975 300.392" stroke="#AEC3CF" stroke-width="1.15551" stroke-miterlimit="10" stroke-linecap="round" stroke-linejoin="round"/>
<path d="M129.265 286.558C127.912 286.327 126.58 286.338 125.139 286.48C118.675 287.359 114.081 292.901 114.156 299.194" stroke="#7CA1BD" stroke-width="1.15551" stroke-miterlimit="10" stroke-linecap="round" stroke-linejoin="round"/>
<path d="M177.429 327.373C178.634 327.255 179.707 327.028 180.759 326.56C181 326.536 181.11 326.404 181.461 326.248C182.052 326.068 182.512 325.78 182.973 325.491C183.324 325.335 183.433 325.203 183.784 325.047C184.134 324.891 184.354 324.626 184.705 324.47C186.305 323.34 187.622 321.753 188.808 320.057C189.028 319.792 189.116 319.419 189.335 319.154C189.643 318.517 189.84 318.011 190.038 317.505C190.809 315.243 191.318 312.763 190.972 310.246C190.477 306.042 188.338 302.487 185.321 299.99C182.172 297.385 178.058 296.211 173.743 296.879C165.223 298.083 159.099 305.733 160.221 314.248C160.61 317.247 161.831 320.042 163.732 322.285C167.097 325.962 172.26 328.004 177.429 327.373Z" fill="url(#paint12_linear)"/>
<path d="M182.345 301.411C181.819 300.975 181.183 300.672 180.546 300.369" stroke="#7CA1BD" stroke-width="1.15551" stroke-miterlimit="10" stroke-linecap="round" stroke-linejoin="round"/>
<path d="M178.185 324.173C178.774 323.994 179.364 323.815 179.843 323.767C180.083 323.744 180.193 323.612 180.433 323.588C181.131 323.278 181.829 322.967 182.288 322.68C182.506 322.416 182.746 322.392 182.964 322.128C184.209 321.158 185.432 319.948 186.154 318.546C186.373 318.282 186.351 318.042 186.57 317.778C186.767 317.275 187.095 316.879 187.183 316.508C187.578 315.5 187.732 314.517 187.886 313.533" stroke="#AEC3CF" stroke-width="1.15551" stroke-miterlimit="10" stroke-linecap="round" stroke-linejoin="round"/>
<path d="M178.176 299.699C176.823 299.469 175.492 299.479 174.05 299.621C167.587 300.5 162.992 306.043 163.068 312.336" stroke="#7CA1BD" stroke-width="1.15551" stroke-miterlimit="10" stroke-linecap="round" stroke-linejoin="round"/>
<path d="M224.746 384.092C220.814 384.092 44.9131 384.092 44.9131 384.092V362.707V338.177H224.746V362.707V384.092Z" fill="#2E4159"/>
<path d="M170.758 282.393L173.249 281.769C173.872 281.561 173.872 280.729 173.249 280.729L170.758 280.105C169.928 279.897 169.098 279.065 168.89 278.233L168.06 275.529C167.852 274.905 167.022 274.905 167.022 275.529L166.399 278.025C166.192 278.857 165.361 279.689 164.531 279.897L162.04 280.521C161.418 280.729 161.418 281.561 162.04 281.561L164.531 282.185C165.361 282.393 166.192 283.225 166.399 284.057L167.022 286.553C167.229 287.177 168.06 287.177 168.06 286.553L168.682 284.057C169.098 283.225 169.928 282.601 170.758 282.393Z" fill="#F07F53"/>
<path d="M106.205 259.304L108.073 258.888C108.488 258.68 108.488 258.264 108.073 258.056L106.205 257.64C105.582 257.432 104.96 257.016 104.752 256.184L104.337 254.312C104.13 253.896 103.714 253.896 103.507 254.312L103.092 256.184C102.884 256.808 102.469 257.432 101.639 257.64L99.7706 258.056C99.3554 258.264 99.3554 258.68 99.7706 258.888L101.639 259.304C102.261 259.512 102.884 259.928 103.092 260.76L103.507 262.632C103.714 263.048 104.13 263.048 104.337 262.632L104.752 260.76C105.167 260.136 105.582 259.512 106.205 259.304Z" fill="#F07F53"/>
<path d="M153.115 289.88L154.984 289.256C155.399 289.048 155.399 288.424 154.984 288.424L153.115 287.8C152.493 287.592 151.87 286.968 151.662 286.344L151.04 284.472C150.832 284.056 150.209 284.056 150.209 284.472L149.587 286.344C149.379 286.968 148.757 287.592 148.134 287.8L146.266 288.424C145.851 288.632 145.851 289.256 146.266 289.256L148.134 289.88C148.757 290.088 149.379 290.712 149.587 291.336L150.209 293.208C150.417 293.624 151.04 293.624 151.04 293.208L151.662 291.336C151.87 290.504 152.493 290.088 153.115 289.88Z" fill="#F07F53"/>
<path d="M145.642 296.327L147.303 295.911C147.718 295.911 147.718 295.287 147.303 295.287L145.642 294.871C145.019 294.663 144.604 294.247 144.397 293.623L143.981 291.959C143.981 291.543 143.359 291.543 143.359 291.959L142.944 293.623C142.736 294.247 142.321 294.663 141.698 294.871L140.038 295.287C139.623 295.287 139.623 295.911 140.038 295.911L141.698 296.327C142.321 296.535 142.736 296.951 142.944 297.575L143.359 299.239C143.359 299.655 143.981 299.655 143.981 299.239L144.397 297.575C144.604 296.951 145.019 296.327 145.642 296.327Z" fill="#F07F53"/>
<path d="M50.9914 309.433L53.0671 308.809C53.4822 308.601 53.4822 307.977 53.0671 307.769L50.9914 307.145C50.1611 306.937 49.5384 306.313 49.3308 305.481L48.7081 303.401C48.5006 302.985 47.8779 302.985 47.6703 303.401L47.0476 305.481C46.84 306.313 46.2173 306.937 45.387 307.145L43.3114 307.769C42.8962 307.977 42.8962 308.601 43.3114 308.809L45.387 309.433C46.2173 309.641 46.84 310.265 47.0476 311.097L47.6703 313.177C47.8779 313.593 48.5006 313.593 48.7081 313.177L49.3308 311.097C49.5384 310.265 50.3687 309.641 50.9914 309.433Z" fill="#F07F53"/>
<path d="M288.726 349.023C287.688 350.063 286.651 350.895 285.405 351.519C285.198 351.727 284.99 351.728 284.575 351.936C283.952 352.352 283.329 352.559 282.707 352.767C282.292 352.975 282.084 352.975 281.669 353.183C281.254 353.391 280.838 353.391 280.423 353.599C278.14 354.223 275.649 354.224 273.158 354.016C272.743 354.016 272.328 353.807 271.913 353.807C271.083 353.599 270.46 353.391 269.838 353.183C267.139 352.143 264.441 350.687 262.365 348.399C258.836 344.655 257.176 339.871 257.176 335.087C257.176 330.095 259.251 325.311 263.195 321.775C270.875 314.703 282.707 314.911 289.764 322.607C292.255 325.311 293.915 328.639 294.538 332.175C295.368 338.207 293.293 344.655 288.726 349.023Z" fill="url(#paint13_linear)"/>
<path d="M260.704 333.425C260.704 332.593 260.912 331.762 261.12 330.93" stroke="#7CA1BD" stroke-width="1.40337" stroke-miterlimit="10" stroke-linecap="round" stroke-linejoin="round"/>
<path d="M285.197 347.153C284.575 347.569 283.952 347.986 283.537 348.402C283.329 348.61 283.121 348.61 282.914 348.818C282.084 349.234 281.254 349.65 280.631 349.858C280.216 349.858 280.008 350.065 279.593 350.065C277.725 350.481 275.649 350.689 273.781 350.273C273.366 350.273 273.158 350.065 272.743 350.065C272.12 349.857 271.498 349.858 271.083 349.65C269.837 349.234 268.8 348.609 267.762 347.985" stroke="#AEC3CF" stroke-width="1.40337" stroke-miterlimit="10" stroke-linecap="round" stroke-linejoin="round"/>
<path d="M262.365 328.225C263.195 326.769 264.233 325.521 265.479 324.273C271.29 318.865 280.008 318.866 285.82 323.858" stroke="#7CA1BD" stroke-width="1.40337" stroke-miterlimit="10" stroke-linecap="round" stroke-linejoin="round"/>
<path d="M394.289 359.904C393.084 359.785 392.011 359.558 390.959 359.09C390.718 359.067 390.608 358.934 390.257 358.778C389.666 358.598 389.206 358.31 388.745 358.022C388.394 357.866 388.285 357.733 387.934 357.577C387.584 357.421 387.364 357.156 387.013 357C385.413 355.871 384.096 354.283 382.91 352.587C382.69 352.323 382.602 351.95 382.383 351.685C382.075 351.047 381.878 350.541 381.679 350.036C380.909 347.773 380.4 345.293 380.746 342.776C381.241 338.573 383.38 335.017 386.397 332.521C389.546 329.915 393.66 328.741 397.975 329.409C406.495 330.613 412.619 338.263 411.497 346.778C411.108 349.777 409.887 352.573 407.986 354.815C404.621 358.493 399.458 360.535 394.289 359.904Z" fill="url(#paint14_linear)"/>
<path d="M389.372 333.941C389.898 333.505 390.534 333.202 391.171 332.899" stroke="#7CA1BD" stroke-width="1.15551" stroke-miterlimit="10" stroke-linecap="round" stroke-linejoin="round"/>
<path d="M393.531 356.703C392.942 356.524 392.353 356.345 391.873 356.298C391.633 356.274 391.524 356.143 391.284 356.119C390.586 355.808 389.888 355.497 389.429 355.21C389.211 354.946 388.971 354.922 388.753 354.659C387.508 353.689 386.285 352.479 385.562 351.076C385.344 350.812 385.365 350.572 385.147 350.309C384.95 349.805 384.621 349.41 384.533 349.038C384.139 348.031 383.985 347.047 383.831 346.063" stroke="#AEC3CF" stroke-width="1.15551" stroke-miterlimit="10" stroke-linecap="round" stroke-linejoin="round"/>
<path d="M393.54 332.23C394.893 331.999 396.225 332.01 397.666 332.152C404.13 333.031 408.724 338.573 408.649 344.866" stroke="#7CA1BD" stroke-width="1.15551" stroke-miterlimit="10" stroke-linecap="round" stroke-linejoin="round"/>
<path d="M355.925 350.735C354.72 350.616 353.647 350.389 352.595 349.921C352.354 349.898 352.244 349.765 351.893 349.609C351.302 349.429 350.842 349.141 350.381 348.853C350.03 348.697 349.921 348.564 349.57 348.408C349.22 348.252 349 347.988 348.649 347.832C347.049 346.702 345.732 345.114 344.546 343.418C344.326 343.154 344.238 342.781 344.019 342.516C343.711 341.878 343.514 341.372 343.315 340.867C342.545 338.604 342.036 336.124 342.382 333.607C342.877 329.404 345.016 325.849 348.033 323.352C351.182 320.746 355.296 319.572 359.611 320.24C368.131 321.444 374.255 329.094 373.133 337.609C372.744 340.608 371.523 343.404 369.622 345.646C366.257 349.324 361.094 351.366 355.925 350.735Z" fill="url(#paint15_linear)"/>
<path d="M351.008 324.773C351.535 324.337 352.171 324.034 352.807 323.731" stroke="#7CA1BD" stroke-width="1.15551" stroke-miterlimit="10" stroke-linecap="round" stroke-linejoin="round"/>
<path d="M355.168 347.535C354.579 347.356 353.99 347.177 353.51 347.13C353.27 347.106 353.16 346.975 352.92 346.951C352.222 346.64 351.524 346.329 351.066 346.042C350.847 345.778 350.608 345.754 350.389 345.491C349.144 344.521 347.921 343.311 347.199 341.908C346.98 341.644 347.002 341.404 346.783 341.141C346.586 340.637 346.258 340.242 346.17 339.87C345.776 338.863 345.622 337.879 345.467 336.895" stroke="#AEC3CF" stroke-width="1.15551" stroke-miterlimit="10" stroke-linecap="round" stroke-linejoin="round"/>
<path d="M355.177 323.06C356.53 322.829 357.861 322.84 359.302 322.982C365.766 323.861 370.361 329.403 370.285 335.696" stroke="#7CA1BD" stroke-width="1.15551" stroke-miterlimit="10" stroke-linecap="round" stroke-linejoin="round"/>
<path d="M335.791 326.516C336.996 326.635 338.069 326.862 339.121 327.33C339.362 327.353 339.472 327.486 339.823 327.642C340.414 327.822 340.874 328.11 341.335 328.398C341.686 328.554 341.795 328.687 342.146 328.843C342.496 328.999 342.716 329.263 343.067 329.419C344.667 330.549 345.984 332.137 347.17 333.833C347.39 334.097 347.478 334.47 347.697 334.735C348.005 335.373 348.203 335.879 348.401 336.384C349.171 338.647 349.68 341.127 349.334 343.644C348.839 347.847 346.7 351.402 343.683 353.899C340.534 356.505 336.42 357.679 332.105 357.011C323.585 355.807 317.461 348.157 318.583 339.642C318.972 336.643 320.193 333.847 322.094 331.605C325.459 327.927 330.622 325.885 335.791 326.516Z" fill="url(#paint16_linear)"/>
<path d="M340.708 352.478C340.181 352.914 339.545 353.217 338.909 353.521" stroke="#7CA1BD" stroke-width="1.15551" stroke-miterlimit="10" stroke-linecap="round" stroke-linejoin="round"/>
<path d="M336.548 329.717C337.137 329.896 337.726 330.075 338.206 330.122C338.446 330.146 338.555 330.277 338.795 330.301C339.494 330.612 340.192 330.923 340.65 331.21C340.869 331.474 341.108 331.498 341.327 331.761C342.571 332.731 343.795 333.941 344.517 335.344C344.736 335.608 344.714 335.848 344.933 336.111C345.13 336.615 345.458 337.01 345.546 337.382C345.94 338.389 346.094 339.373 346.249 340.356" stroke="#AEC3CF" stroke-width="1.15551" stroke-miterlimit="10" stroke-linecap="round" stroke-linejoin="round"/>
<path d="M336.539 354.19C335.186 354.421 333.854 354.41 332.413 354.268C325.949 353.389 321.355 347.847 321.43 341.554" stroke="#7CA1BD" stroke-width="1.15551" stroke-miterlimit="10" stroke-linecap="round" stroke-linejoin="round"/>
<path d="M423.711 384.093C419.779 384.093 243.878 384.093 243.878 384.093V362.708V338.178H423.711V362.708V384.093Z" fill="#2E4159"/>
<path d="M379.759 315.742L381.628 315.326C382.043 315.118 382.043 314.702 381.628 314.494L379.759 314.078C379.137 313.87 378.514 313.454 378.306 312.622L377.891 310.75C377.684 310.333 377.269 310.333 377.061 310.75L376.646 312.622C376.438 313.246 376.023 313.87 375.193 314.078L373.325 314.494C372.91 314.702 372.91 315.118 373.325 315.326L375.193 315.742C375.816 315.95 376.438 316.366 376.646 317.198L377.061 319.07C377.269 319.486 377.684 319.486 377.891 319.07L378.306 317.198C378.722 316.574 379.137 315.95 379.759 315.742Z" fill="#F07F53"/>
<path d="M285.475 309.462L287.343 308.838C287.758 308.63 287.758 308.006 287.343 308.006L285.475 307.382C284.852 307.174 284.23 306.55 284.022 305.926L283.399 304.054C283.192 303.638 282.569 303.638 282.569 304.054L281.946 305.926C281.739 306.55 281.116 307.174 280.493 307.382L278.625 308.006C278.21 308.214 278.21 308.838 278.625 308.838L280.493 309.462C281.116 309.67 281.739 310.294 281.946 310.918L282.569 312.79C282.777 313.206 283.399 313.206 283.399 312.79L284.022 310.918C284.23 310.086 284.852 309.67 285.475 309.462Z" fill="#F07F53"/>
<path d="M344.607 296.328L346.267 295.912C346.682 295.912 346.682 295.288 346.267 295.288L344.607 294.872C343.984 294.664 343.569 294.248 343.361 293.624L342.946 291.96C342.946 291.544 342.323 291.544 342.323 291.96L341.908 293.624C341.701 294.248 341.286 294.664 340.663 294.872L339.002 295.288C338.587 295.288 338.587 295.912 339.002 295.912L340.663 296.328C341.286 296.536 341.701 296.952 341.908 297.576L342.323 299.24C342.323 299.656 342.946 299.656 342.946 299.24L343.361 297.576C343.569 296.952 343.984 296.328 344.607 296.328Z" fill="#F07F53"/>
<path d="M487.69 348.681C486.653 349.721 485.615 350.553 484.37 351.177C484.162 351.385 483.954 351.386 483.539 351.594C482.916 352.01 482.294 352.218 481.671 352.426C481.256 352.634 481.048 352.633 480.633 352.841C480.218 353.049 479.803 353.049 479.388 353.257C477.104 353.881 474.614 353.882 472.123 353.674C471.708 353.674 471.293 353.466 470.878 353.466C470.047 353.258 469.425 353.049 468.802 352.841C466.104 351.801 463.405 350.345 461.329 348.057C457.801 344.313 456.14 339.529 456.14 334.745C456.14 329.753 458.216 324.97 462.159 321.434C469.839 314.362 481.671 314.569 488.728 322.265C491.219 324.969 492.88 328.298 493.502 331.834C494.333 337.866 492.257 344.313 487.69 348.681Z" fill="url(#paint17_linear)"/>
<path d="M459.668 333.081C459.668 332.249 459.876 331.418 460.084 330.586" stroke="#7CA1BD" stroke-width="1.40337" stroke-miterlimit="10" stroke-linecap="round" stroke-linejoin="round"/>
<path d="M484.161 346.81C483.539 347.226 482.916 347.642 482.501 348.058C482.293 348.266 482.085 348.266 481.878 348.474C481.048 348.89 480.218 349.306 479.595 349.514C479.18 349.514 478.972 349.721 478.557 349.721C476.689 350.137 474.613 350.346 472.745 349.93C472.33 349.93 472.122 349.721 471.707 349.721C471.085 349.513 470.462 349.514 470.047 349.306C468.801 348.89 467.764 348.265 466.726 347.641" stroke="#AEC3CF" stroke-width="1.40337" stroke-miterlimit="10" stroke-linecap="round" stroke-linejoin="round"/>
<path d="M461.329 327.881C462.159 326.425 463.197 325.178 464.443 323.93C470.255 318.522 478.972 318.522 484.784 323.514" stroke="#7CA1BD" stroke-width="1.40337" stroke-miterlimit="10" stroke-linecap="round" stroke-linejoin="round"/>
<path d="M504.87 353.214C503.078 353.037 501.481 352.7 499.916 352.003C499.557 351.968 499.393 351.771 498.872 351.539C497.992 351.271 497.307 350.842 496.622 350.413C496.1 350.181 495.938 349.984 495.416 349.752C494.894 349.519 494.567 349.126 494.045 348.894C491.664 347.213 489.704 344.851 487.94 342.327C487.613 341.934 487.482 341.379 487.156 340.985C486.698 340.036 486.404 339.283 486.109 338.531C484.962 335.165 484.206 331.475 484.72 327.73C485.457 321.476 488.64 316.186 493.129 312.471C497.813 308.594 503.934 306.848 510.354 307.842C523.031 309.633 532.143 321.015 530.473 333.684C529.895 338.146 528.078 342.306 525.25 345.642C520.243 351.114 512.561 354.152 504.87 353.214Z" fill="url(#paint18_linear)"/>
<path d="M497.555 314.586C498.338 313.938 499.285 313.487 500.233 313.036" stroke="#7CA1BD" stroke-width="1.71924" stroke-miterlimit="10" stroke-linecap="round" stroke-linejoin="round"/>
<path d="M503.744 348.452C502.868 348.186 501.991 347.919 501.277 347.849C500.92 347.814 500.757 347.618 500.4 347.582C499.361 347.12 498.322 346.658 497.64 346.23C497.315 345.838 496.959 345.802 496.634 345.41C494.782 343.967 492.962 342.166 491.887 340.079C491.562 339.687 491.594 339.33 491.269 338.938C490.975 338.188 490.487 337.6 490.356 337.047C489.77 335.548 489.541 334.085 489.311 332.621" stroke="#AEC3CF" stroke-width="1.71924" stroke-miterlimit="10" stroke-linecap="round" stroke-linejoin="round"/>
<path d="M503.757 312.037C505.771 311.695 507.752 311.71 509.896 311.921C519.513 313.23 526.35 321.476 526.238 330.839" stroke="#7CA1BD" stroke-width="1.71924" stroke-miterlimit="10" stroke-linecap="round" stroke-linejoin="round"/>
<path d="M593.253 359.562C592.049 359.443 590.975 359.217 589.923 358.748C589.682 358.725 589.572 358.592 589.221 358.436C588.63 358.257 588.17 357.968 587.709 357.68C587.359 357.524 587.249 357.391 586.899 357.235C586.548 357.079 586.328 356.815 585.977 356.659C584.377 355.529 583.06 353.942 581.874 352.245C581.655 351.981 581.567 351.608 581.347 351.343C581.039 350.705 580.842 350.2 580.644 349.694C579.873 347.431 579.364 344.952 579.71 342.434C580.205 338.231 582.344 334.676 585.361 332.179C588.51 329.573 592.624 328.399 596.939 329.067C605.459 330.271 611.583 337.921 610.461 346.436C610.072 349.435 608.851 352.231 606.951 354.473C603.585 358.151 598.422 360.193 593.253 359.562Z" fill="url(#paint19_linear)"/>
<path d="M588.336 333.598C588.863 333.162 589.499 332.859 590.135 332.555" stroke="#7CA1BD" stroke-width="1.15551" stroke-miterlimit="10" stroke-linecap="round" stroke-linejoin="round"/>
<path d="M592.496 356.36C591.907 356.181 591.317 356.002 590.838 355.954C590.598 355.931 590.488 355.799 590.248 355.775C589.55 355.464 588.852 355.154 588.393 354.866C588.175 354.603 587.936 354.579 587.717 354.315C586.472 353.345 585.249 352.135 584.527 350.732C584.308 350.469 584.33 350.229 584.111 349.965C583.914 349.461 583.586 349.066 583.498 348.694C583.103 347.687 582.949 346.703 582.795 345.72" stroke="#AEC3CF" stroke-width="1.15551" stroke-miterlimit="10" stroke-linecap="round" stroke-linejoin="round"/>
<path d="M592.505 331.886C593.858 331.656 595.189 331.666 596.631 331.808C603.094 332.687 607.689 338.229 607.613 344.522" stroke="#7CA1BD" stroke-width="1.15551" stroke-miterlimit="10" stroke-linecap="round" stroke-linejoin="round"/>
<path d="M554.89 350.392C553.685 350.274 552.612 350.047 551.56 349.579C551.319 349.555 551.208 349.423 550.858 349.266C550.266 349.087 549.806 348.798 549.346 348.51C548.995 348.354 548.886 348.221 548.535 348.065C548.184 347.909 547.965 347.645 547.614 347.489C546.013 346.359 544.696 344.772 543.511 343.075C543.291 342.811 543.203 342.438 542.984 342.173C542.676 341.535 542.478 341.03 542.28 340.524C541.509 338.261 541.001 335.782 541.346 333.264C541.842 329.061 543.981 325.506 546.998 323.009C550.146 320.403 554.26 319.229 558.575 319.897C567.096 321.101 573.22 328.751 572.097 337.266C571.709 340.265 570.488 343.061 568.587 345.304C565.222 348.981 560.058 351.023 554.89 350.392Z" fill="url(#paint20_linear)"/>
<path d="M549.973 324.431C550.499 323.995 551.135 323.692 551.772 323.388" stroke="#7CA1BD" stroke-width="1.15551" stroke-miterlimit="10" stroke-linecap="round" stroke-linejoin="round"/>
<path d="M554.132 347.193C553.543 347.014 552.954 346.834 552.474 346.787C552.235 346.764 552.125 346.632 551.885 346.608C551.187 346.297 550.489 345.987 550.03 345.699C549.812 345.436 549.572 345.412 549.354 345.148C548.109 344.178 546.886 342.968 546.163 341.565C545.945 341.302 545.966 341.062 545.748 340.798C545.551 340.294 545.222 339.899 545.134 339.527C544.74 338.52 544.586 337.536 544.432 336.553" stroke="#AEC3CF" stroke-width="1.15551" stroke-miterlimit="10" stroke-linecap="round" stroke-linejoin="round"/>
<path d="M554.141 322.717C555.494 322.487 556.826 322.497 558.267 322.639C564.731 323.518 569.325 329.06 569.25 335.353" stroke="#7CA1BD" stroke-width="1.15551" stroke-miterlimit="10" stroke-linecap="round" stroke-linejoin="round"/>
<path d="M535.207 313.303C536.412 313.422 537.485 313.649 538.537 314.117C538.778 314.141 538.888 314.273 539.239 314.429C539.831 314.609 540.291 314.897 540.751 315.185C541.102 315.341 541.211 315.474 541.562 315.63C541.912 315.786 542.132 316.051 542.483 316.207C544.084 317.336 545.401 318.924 546.586 320.62C546.806 320.884 546.894 321.258 547.113 321.522C547.421 322.16 547.619 322.666 547.817 323.171C548.588 325.434 549.096 327.914 548.751 330.431C548.255 334.634 546.116 338.19 543.099 340.687C539.951 343.292 535.837 344.466 531.522 343.798C523.001 342.594 516.877 334.944 518 326.429C518.388 323.43 519.609 320.634 521.51 318.392C524.875 314.714 530.038 312.672 535.207 313.303Z" fill="url(#paint21_linear)"/>
<path d="M540.124 339.264C539.597 339.7 538.961 340.004 538.325 340.307" stroke="#7CA1BD" stroke-width="1.15551" stroke-miterlimit="10" stroke-linecap="round" stroke-linejoin="round"/>
<path d="M535.964 316.503C536.553 316.682 537.142 316.861 537.622 316.908C537.862 316.932 537.972 317.063 538.212 317.087C538.91 317.398 539.608 317.709 540.067 317.996C540.285 318.26 540.524 318.284 540.743 318.547C541.988 319.517 543.211 320.727 543.933 322.13C544.152 322.394 544.13 322.634 544.349 322.897C544.546 323.401 544.874 323.796 544.962 324.168C545.357 325.175 545.51 326.159 545.665 327.143" stroke="#AEC3CF" stroke-width="1.15551" stroke-miterlimit="10" stroke-linecap="round" stroke-linejoin="round"/>
<path d="M535.955 340.977C534.602 341.207 533.27 341.197 531.829 341.055C525.366 340.175 520.771 334.633 520.846 328.34" stroke="#7CA1BD" stroke-width="1.15551" stroke-miterlimit="10" stroke-linecap="round" stroke-linejoin="round"/>
<path d="M584.497 310.255C585.701 310.374 586.775 310.601 587.827 311.069C588.068 311.093 588.178 311.225 588.528 311.381C589.12 311.561 589.58 311.849 590.04 312.137C590.391 312.293 590.5 312.426 590.851 312.582C591.202 312.738 591.422 313.003 591.772 313.159C593.373 314.288 594.69 315.876 595.876 317.572C596.095 317.837 596.183 318.21 596.403 318.474C596.71 319.112 596.908 319.618 597.106 320.123C597.877 322.386 598.386 324.866 598.04 327.383C597.544 331.586 595.405 335.142 592.388 337.639C589.24 340.244 585.126 341.418 580.811 340.75C572.291 339.546 566.167 331.896 567.289 323.381C567.677 320.382 568.898 317.586 570.799 315.344C574.164 311.666 579.328 309.624 584.497 310.255Z" fill="url(#paint22_linear)"/>
<path d="M589.413 336.216C588.887 336.652 588.251 336.955 587.614 337.258" stroke="#7CA1BD" stroke-width="1.15551" stroke-miterlimit="10" stroke-linecap="round" stroke-linejoin="round"/>
<path d="M585.254 313.454C585.843 313.633 586.432 313.812 586.912 313.859C587.152 313.883 587.261 314.015 587.501 314.038C588.199 314.349 588.898 314.66 589.356 314.947C589.575 315.211 589.814 315.235 590.033 315.499C591.277 316.469 592.501 317.678 593.223 319.081C593.441 319.345 593.42 319.585 593.638 319.849C593.836 320.352 594.164 320.747 594.252 321.119C594.646 322.126 594.8 323.11 594.954 324.094" stroke="#AEC3CF" stroke-width="1.15551" stroke-miterlimit="10" stroke-linecap="round" stroke-linejoin="round"/>
<path d="M585.245 337.928C583.891 338.158 582.56 338.148 581.119 338.006C574.655 337.126 570.06 331.584 570.136 325.291" stroke="#7CA1BD" stroke-width="1.15551" stroke-miterlimit="10" stroke-linecap="round" stroke-linejoin="round"/>
<path d="M622.675 383.751C618.743 383.751 442.842 383.751 442.842 383.751V362.366V337.836H622.675V362.366V383.751Z" fill="#2E4159"/>
<path d="M566.288 313.828L568.157 313.412C568.572 313.204 568.572 312.788 568.157 312.58L566.288 312.164C565.666 311.956 565.043 311.54 564.835 310.708L564.42 308.836C564.213 308.42 563.798 308.42 563.59 308.836L563.175 310.708C562.967 311.332 562.552 311.956 561.722 312.164L559.854 312.58C559.439 312.788 559.439 313.204 559.854 313.412L561.722 313.828C562.345 314.036 562.967 314.452 563.175 315.284L563.59 317.156C563.798 317.572 564.213 317.572 564.42 317.156L564.835 315.284C565.251 314.66 565.666 314.036 566.288 313.828Z" fill="#F07F53"/>
<path d="M543.571 295.987L545.232 295.571C545.647 295.571 545.647 294.947 545.232 294.947L543.571 294.531C542.948 294.323 542.533 293.907 542.326 293.283L541.91 291.619C541.91 291.203 541.288 291.203 541.288 291.619L540.873 293.283C540.665 293.907 540.25 294.323 539.627 294.531L537.967 294.947C537.551 294.947 537.551 295.571 537.967 295.571L539.627 295.987C540.25 296.195 540.665 296.611 540.873 297.235L541.288 298.899C541.288 299.315 541.91 299.315 541.91 298.899L542.326 297.235C542.533 296.611 542.948 295.987 543.571 295.987Z" fill="#F07F53"/>
<path opacity="0.3" d="M337.638 264.02V120" stroke="#BCC8CE" stroke-width="5.31904" stroke-miterlimit="10" stroke-linecap="round" stroke-linejoin="round" stroke-dasharray="1.33 10.64"/>
<path opacity="0.3" d="M359 120V139.149C359 151.915 370.411 162.183 384.598 162.183H441.5H498.402C512.589 162.183 524 172.452 524 185.218V241" stroke="#BCC8CE" stroke-width="5.31904" stroke-miterlimit="10" stroke-linecap="round" stroke-linejoin="round" stroke-dasharray="1.33 10.64"/>
<path opacity="0.3" d="M316 120V139.149C316 151.915 304.036 162.183 289.161 162.183H169.839C154.964 162.183 143 172.452 143 185.218V241" stroke="#BCC8CE" stroke-width="5.31904" stroke-miterlimit="10" stroke-linecap="round" stroke-linejoin="round" stroke-dasharray="1.33 10.64"/>
<rect x="293" width="90" height="100" fill="#87ABC5"/>
<path fill-rule="evenodd" clip-rule="evenodd" d="M352.703 24H317V59.145H325.926V32.7866H330.573V32.7168H352.703V24ZM334.851 50.2893V41.6425H352.703V59.145H343.693V50.2893H334.851Z" fill="white"/>
<path fill-rule="evenodd" clip-rule="evenodd" d="M352.703 55.1914H343.777V59.0757H326.135V68.0014H352.494V62.6597H352.703V55.1914Z" fill="white"/>
<path d="M361.559 32.7168V41.6425H352.773V32.7168H361.559Z" fill="white"/>
<path d="M325.856 67.8613V76.787H317.07V67.8613H325.856Z" fill="white"/>
<defs>
<linearGradient id="paint0_linear" x1="333.5" y1="57" x2="333.5" y2="384" gradientUnits="userSpaceOnUse">
<stop stop-color="#AEC3CF"/>
<stop offset="1" stop-color="#AEC3CF" stop-opacity="0"/>
</linearGradient>
<linearGradient id="paint1_linear" x1="166.748" y1="286.833" x2="164.353" y2="317.882" gradientUnits="userSpaceOnUse">
<stop offset="0.00289017" stop-color="#AEC3CF"/>
<stop offset="1" stop-color="#799FBB"/>
</linearGradient>
<linearGradient id="paint2_linear" x1="61.1972" y1="324.157" x2="92.1684" y2="345.771" gradientUnits="userSpaceOnUse">
<stop offset="0.00289017" stop-color="#AEC3CF"/>
<stop offset="1" stop-color="#799FBB"/>
</linearGradient>
<linearGradient id="paint3_linear" x1="107.804" y1="307.158" x2="111.368" y2="353.354" gradientUnits="userSpaceOnUse">
<stop offset="0.00289017" stop-color="#AEC3CF"/>
<stop offset="1" stop-color="#799FBB"/>
</linearGradient>
<linearGradient id="paint4_linear" x1="144.904" y1="293.189" x2="148.468" y2="339.386" gradientUnits="userSpaceOnUse">
<stop offset="0.00289017" stop-color="#AEC3CF"/>
<stop offset="1" stop-color="#799FBB"/>
</linearGradient>
<linearGradient id="paint5_linear" x1="188.706" y1="315.092" x2="192.27" y2="361.288" gradientUnits="userSpaceOnUse">
<stop offset="0.00289017" stop-color="#AEC3CF"/>
<stop offset="1" stop-color="#799FBB"/>
</linearGradient>
<linearGradient id="paint6_linear" x1="98.4071" y1="293.814" x2="100.802" y2="324.863" gradientUnits="userSpaceOnUse">
<stop offset="0.00289017" stop-color="#AEC3CF"/>
<stop offset="1" stop-color="#799FBB"/>
</linearGradient>
<linearGradient id="paint7_linear" x1="103.632" y1="270.302" x2="106.028" y2="301.351" gradientUnits="userSpaceOnUse">
<stop offset="0.00289017" stop-color="#AEC3CF"/>
<stop offset="1" stop-color="#799FBB"/>
</linearGradient>
<linearGradient id="paint8_linear" x1="78.8148" y1="291.201" x2="81.2102" y2="322.25" gradientUnits="userSpaceOnUse">
<stop offset="0.00289017" stop-color="#AEC3CF"/>
<stop offset="1" stop-color="#799FBB"/>
</linearGradient>
<linearGradient id="paint9_linear" x1="157.54" y1="319.549" x2="159.936" y2="350.598" gradientUnits="userSpaceOnUse">
<stop offset="0.00289017" stop-color="#AEC3CF"/>
<stop offset="1" stop-color="#799FBB"/>
</linearGradient>
<linearGradient id="paint10_linear" x1="136.698" y1="344.83" x2="134.303" y2="313.781" gradientUnits="userSpaceOnUse">
<stop offset="0.00289017" stop-color="#AEC3CF"/>
<stop offset="1" stop-color="#799FBB"/>
</linearGradient>
<linearGradient id="paint11_linear" x1="127.939" y1="283.048" x2="125.543" y2="314.097" gradientUnits="userSpaceOnUse">
<stop offset="0.00289017" stop-color="#AEC3CF"/>
<stop offset="1" stop-color="#799FBB"/>
</linearGradient>
<linearGradient id="paint12_linear" x1="176.849" y1="296.189" x2="174.454" y2="327.238" gradientUnits="userSpaceOnUse">
<stop offset="0.00289017" stop-color="#AEC3CF"/>
<stop offset="1" stop-color="#799FBB"/>
</linearGradient>
<linearGradient id="paint13_linear" x1="260.162" y1="324.158" x2="291.133" y2="345.772" gradientUnits="userSpaceOnUse">
<stop offset="0.00289017" stop-color="#AEC3CF"/>
<stop offset="1" stop-color="#799FBB"/>
</linearGradient>
<linearGradient id="paint14_linear" x1="394.869" y1="328.719" x2="397.264" y2="359.768" gradientUnits="userSpaceOnUse">
<stop offset="0.00289017" stop-color="#AEC3CF"/>
<stop offset="1" stop-color="#799FBB"/>
</linearGradient>
<linearGradient id="paint15_linear" x1="356.505" y1="319.55" x2="358.9" y2="350.599" gradientUnits="userSpaceOnUse">
<stop offset="0.00289017" stop-color="#AEC3CF"/>
<stop offset="1" stop-color="#799FBB"/>
</linearGradient>
<linearGradient id="paint16_linear" x1="335.211" y1="357.701" x2="332.816" y2="326.652" gradientUnits="userSpaceOnUse">
<stop offset="0.00289017" stop-color="#AEC3CF"/>
<stop offset="1" stop-color="#799FBB"/>
</linearGradient>
<linearGradient id="paint17_linear" x1="459.126" y1="323.816" x2="490.097" y2="345.43" gradientUnits="userSpaceOnUse">
<stop offset="0.00289017" stop-color="#AEC3CF"/>
<stop offset="1" stop-color="#799FBB"/>
</linearGradient>
<linearGradient id="paint18_linear" x1="505.733" y1="306.815" x2="509.297" y2="353.012" gradientUnits="userSpaceOnUse">
<stop offset="0.00289017" stop-color="#AEC3CF"/>
<stop offset="1" stop-color="#799FBB"/>
</linearGradient>
<linearGradient id="paint19_linear" x1="593.833" y1="328.377" x2="596.228" y2="359.426" gradientUnits="userSpaceOnUse">
<stop offset="0.00289017" stop-color="#AEC3CF"/>
<stop offset="1" stop-color="#799FBB"/>
</linearGradient>
<linearGradient id="paint20_linear" x1="555.469" y1="319.207" x2="557.865" y2="350.256" gradientUnits="userSpaceOnUse">
<stop offset="0.00289017" stop-color="#AEC3CF"/>
<stop offset="1" stop-color="#799FBB"/>
</linearGradient>
<linearGradient id="paint21_linear" x1="534.628" y1="344.488" x2="532.232" y2="313.439" gradientUnits="userSpaceOnUse">
<stop offset="0.00289017" stop-color="#AEC3CF"/>
<stop offset="1" stop-color="#799FBB"/>
</linearGradient>
<linearGradient id="paint22_linear" x1="583.917" y1="341.44" x2="581.522" y2="310.391" gradientUnits="userSpaceOnUse">
<stop offset="0.00289017" stop-color="#AEC3CF"/>
<stop offset="1" stop-color="#799FBB"/>
</linearGradient>
</defs>
</svg>
