<svg width="568" height="427" viewBox="0 0 568 427" fill="none" xmlns="http://www.w3.org/2000/svg">
<path d="M563.436 4H1.37061V376.209H563.436V4Z" fill="#AEC3CF"/>
<path d="M548.695 50.1703C548.695 48.0393 547.413 46.6187 545.491 46.6187H505.114C503.192 46.6187 501.91 48.0393 501.91 50.1703V53.0116H27.0066V57.9838H501.91V61.5354C501.91 63.6664 503.192 65.0871 505.114 65.0871H545.491C547.413 65.0871 548.695 63.6664 548.695 61.5354V50.1703Z" fill="#EAEEF9"/>
<path d="M548.695 138.251C548.695 136.12 547.413 134.699 545.49 134.699H505.114C503.191 134.699 501.91 136.12 501.91 138.251V141.092H27.0063V146.775H501.91V149.616C501.91 151.747 503.191 153.168 505.114 153.168H545.49C547.413 153.168 548.695 151.747 548.695 149.616V138.251Z" fill="#EAEEF9"/>
<path d="M548.695 227.042C548.695 224.911 547.413 223.49 545.49 223.49H505.114C503.191 223.49 501.91 224.911 501.91 227.042V229.883H27.0063V234.855H501.91V237.697C501.91 239.828 503.191 241.248 505.114 241.248H545.49C547.413 241.248 548.695 239.828 548.695 237.697V227.042Z" fill="#EAEEF9"/>
<path d="M548.695 315.121C548.695 312.99 547.413 311.569 545.49 311.569H505.114C503.191 311.569 501.91 312.99 501.91 315.121V317.962H27.0063V322.935H501.91V325.776C501.91 327.907 503.191 329.327 505.114 329.327H545.49C547.413 329.327 548.695 327.907 548.695 325.776V315.121Z" fill="#EAEEF9"/>
<path d="M258.666 154.543H242.003V170.171H258.666V154.543Z" fill="#F07F53"/>
<path d="M304.828 129.65H288.233V139.133H304.828V129.65Z" fill="#F07F53"/>
<path d="M324.98 116.611H308.384V129.651H324.98V116.611Z" fill="#F07F53"/>
<path d="M281.189 139.133H264.525V154.76H281.189V139.133Z" fill="#1A2533"/>
<path d="M466.046 307.458H482.709V331.608H466.046V307.458Z" fill="#1A2533"/>
<path d="M442.333 307.458H458.996V322.374H442.333V307.458Z" fill="#F07F53"/>
<path d="M44.1127 230.407H27.4495V266.634H44.1127V230.407Z" fill="#1A2533"/>
<path d="M68.4668 221.172H51.8035V231.827H68.4668V221.172Z" fill="#F07F53"/>
<path d="M92.8217 187.787H76.1584V220.462H92.8217V187.787Z" fill="#1A2533"/>
<path d="M116.533 197.021H99.8701V221.172H116.533V197.021Z" fill="#F07F53"/>
<path d="M140.888 184.945H124.225V195.6H140.888V184.945Z" fill="#F07F53"/>
<path d="M189.751 150.987H173.088V161.642H189.751V150.987Z" fill="#F07F53"/>
<path d="M212.273 140.318H195.61V150.973H212.273V140.318Z" fill="#F07F53"/>
<path d="M164.791 161.655H148.195V185.363H164.791V161.655Z" fill="#1A2533"/>
<path d="M437.591 319.312H420.995V343.019H437.591V319.312Z" fill="#1A2533"/>
<path d="M345.131 116.611H328.536V205.515H345.131V116.611Z" fill="#1A2533"/>
<path d="M367.653 201.958H351.058V290.862H367.653V201.958Z" fill="#1A2533"/>
<path d="M546.714 257.671H530.05V305.263H546.714V257.671Z" fill="#F07F53"/>
<path d="M391.429 279.008H374.766V291.794H391.429V279.008Z" fill="#1A2533"/>
<path d="M501.669 292.047H485.006V304.833H501.669V292.047Z" fill="#1A2533"/>
<rect width="568" height="381" fill="url(#paint0_linear)"/>
<path d="M234.891 140.318H218.296V155.728H234.891V140.318Z" fill="#1A2533"/>
<path d="M524.191 302.716H507.528V315.502H524.191V302.716Z" fill="#1A2533"/>
<path d="M415.137 288.491H398.473V321.876H415.137V288.491Z" fill="#1A2533"/>
<g filter="url(#filter0_d)">
<path d="M291.398 414.032C291.145 414.032 290.64 414.032 290.387 413.777C280.028 407.667 255.013 390.356 245.917 362.097C238.842 338.676 235.81 320.091 234.546 308.381C234.546 307.872 234.799 307.617 234.799 307.362C235.052 307.108 235.304 306.853 236.062 306.599C241.116 306.344 250.212 302.525 250.465 302.525C255.013 300.234 260.319 297.179 265.625 293.615C273.964 288.269 285.587 281.141 291.145 281.141C296.452 281.141 307.569 288.269 315.655 293.36C321.466 296.925 326.773 300.489 331.573 302.525L332.079 302.78C339.406 305.58 343.702 306.599 346.481 306.599C346.734 306.599 347.239 306.853 347.492 307.108C347.745 307.362 347.997 307.617 347.745 308.381C346.481 320.091 343.449 338.676 336.374 362.097C327.783 390.356 302.769 407.413 292.409 413.522C291.903 413.777 291.651 414.032 291.398 414.032Z" fill="#87ABC5"/>
<path opacity="0.2" d="M286.091 312.454C286.091 313.727 285.08 315 283.564 315C282.301 315 281.037 313.982 281.037 312.454C281.037 311.436 281.795 310.417 282.553 310.163V288.778L295.44 275.794C296.198 276.049 296.703 276.304 297.461 276.558L284.575 289.542V310.163C285.585 310.417 286.091 311.436 286.091 312.454Z" fill="#87ABC5"/>
<path opacity="0.2" d="M278.259 371.007C278.259 372.28 277.248 373.553 275.732 373.553C275.226 373.553 274.974 373.553 274.468 373.298L274.721 373.553L262.593 385.773V400.539C261.835 400.029 261.329 399.266 260.824 398.757V385.009L273.458 372.28C273.458 371.771 273.458 371.262 273.458 371.007C273.458 369.734 274.468 368.461 275.984 368.461C277.248 368.461 278.259 369.48 278.259 371.007Z" fill="#87ABC5"/>
<path opacity="0.2" d="M287.355 379.154C287.355 380.427 286.344 381.7 284.828 381.7C284.576 381.7 284.576 381.7 284.323 381.7V381.954L275.479 390.865V411.231C274.974 410.722 274.216 410.213 273.711 409.704V389.846L283.06 380.427V380.172C282.807 379.663 282.554 379.408 282.554 378.899C282.554 377.626 283.565 376.354 285.081 376.354C286.344 376.608 287.355 377.881 287.355 379.154Z" fill="#87ABC5"/>
<path opacity="0.2" d="M270.931 394.683C270.931 395.702 270.173 396.72 269.415 396.975V406.394C268.91 405.885 268.152 405.376 267.646 404.867V396.975C266.636 396.466 265.878 395.702 265.878 394.683C265.878 393.411 266.888 392.138 268.404 392.138C269.92 392.138 270.931 393.156 270.931 394.683Z" fill="#87ABC5"/>
<path opacity="0.2" d="M305.801 412.249C304.537 413.268 303.274 414.031 302.263 414.795C302.263 414.541 302.263 414.541 302.263 414.286C302.263 413.013 303.274 411.74 304.79 411.74C305.043 411.995 305.548 411.995 305.801 412.249Z" fill="#87ABC5"/>
<path opacity="0.2" d="M228.987 304.816C229.493 303.798 229.998 303.034 230.756 302.271V326.965C229.998 322.637 229.493 318.564 228.987 315.254V304.816Z" fill="#87ABC5"/>
<path opacity="0.2" d="M242.632 361.078C242.632 362.351 241.621 363.624 240.105 363.624C239.852 363.624 239.852 363.624 239.599 363.624C239.094 361.587 238.336 359.551 237.831 357.769L239.094 359.041C239.347 358.787 239.852 358.787 240.105 358.787C241.368 358.532 242.632 359.551 242.632 361.078Z" fill="#87ABC5"/>
<path opacity="0.2" d="M245.411 342.495C245.411 343.767 244.4 345.04 242.884 345.04C241.621 345.04 240.357 344.022 240.357 342.495C240.357 341.476 241.115 340.458 242.126 340.203C242.126 339.185 242.126 337.912 242.126 336.894C242.379 332.821 242.379 328.493 242.379 324.419V298.961C243.137 298.707 243.642 298.452 244.147 298.452V324.419C244.147 328.747 243.895 332.821 243.895 337.148C243.895 338.167 243.895 339.44 243.642 340.458C244.905 340.713 245.411 341.476 245.411 342.495Z" fill="#87ABC5"/>
<path opacity="0.2" d="M261.329 289.032V366.679L260.318 366.425C259.56 366.17 258.55 366.679 258.044 367.443V367.698L248.948 376.862V382.972C248.19 381.954 247.685 380.936 247.179 379.917V376.099L256.781 366.425C257.539 365.406 258.55 364.643 259.813 364.643V290.051C260.066 289.796 260.824 289.287 261.329 289.032Z" fill="#87ABC5"/>
<path opacity="0.2" d="M315.149 368.462C315.149 368.971 315.401 369.225 315.401 369.734L310.853 374.317C310.601 374.062 310.095 374.062 309.843 374.062C308.579 374.062 307.316 375.081 307.316 376.608C307.316 378.136 308.326 379.154 309.843 379.154C311.359 379.154 312.369 378.136 312.369 376.608C312.369 376.354 312.369 375.844 312.117 375.59L316.917 370.753C317.17 370.753 317.423 370.753 317.675 370.753C318.939 370.753 320.202 369.734 320.202 368.207C320.202 366.934 319.191 365.661 317.675 365.661C316.412 365.916 315.149 367.189 315.149 368.462Z" fill="#87ABC5"/>
<path opacity="0.2" d="M340.669 367.952C340.416 368.716 340.164 369.225 339.911 369.735H327.783C327.53 370.753 326.519 371.262 325.509 371.262C324.245 371.262 322.982 370.244 322.982 368.716C322.982 367.443 323.993 366.17 325.509 366.17C326.519 366.17 327.53 366.934 327.783 367.698H340.669V367.952Z" fill="#87ABC5"/>
<path opacity="0.2" d="M344.207 356.75C343.954 357.26 343.954 358.023 343.701 358.532H326.772L326.52 358.278C326.014 357.769 323.993 355.732 322.224 353.95C319.95 351.659 318.687 350.386 317.929 349.622C317.676 349.622 317.171 349.877 316.918 349.877C315.655 349.877 314.391 348.858 314.391 347.331C314.391 346.058 315.402 344.785 316.918 344.785C318.181 344.785 319.445 345.803 319.445 347.331C319.445 347.586 319.445 348.095 319.192 348.349C319.697 348.858 321.719 350.895 323.488 352.677C325.509 354.714 327.025 356.241 327.53 357.005H344.207V356.75Z" fill="#87ABC5"/>
<path opacity="0.2" d="M312.875 331.038C312.875 332.311 313.885 333.584 315.401 333.584C315.654 333.584 316.159 333.584 316.412 333.329L324.75 341.73L326.772 343.512C326.519 344.022 326.519 344.276 326.519 344.785C326.519 346.058 327.53 347.331 329.046 347.331C330.562 347.331 331.573 346.313 331.573 344.785C331.573 343.258 330.562 342.24 329.046 342.24C328.793 342.24 328.793 342.24 328.54 342.24L326.014 340.457L317.675 332.056C317.675 331.802 317.928 331.547 317.928 331.038C317.928 329.765 316.917 328.492 315.401 328.492C313.885 328.492 312.875 329.511 312.875 331.038Z" fill="#87ABC5"/>
<path opacity="0.2" d="M328.288 331.038C328.288 332.311 329.299 333.583 330.815 333.583C331.068 333.583 331.32 333.583 331.573 333.329L341.427 343.258C341.175 343.767 340.922 344.021 340.922 344.785C340.922 346.058 341.933 347.331 343.449 347.331C344.965 347.331 345.976 346.313 345.976 344.785C345.976 343.258 344.965 342.239 343.449 342.239C343.196 342.239 343.196 342.239 342.943 342.239L332.836 332.056C333.089 331.801 333.089 331.292 333.089 330.783C333.089 329.51 332.078 328.237 330.562 328.237C329.552 328.492 328.288 329.51 328.288 331.038Z" fill="#87ABC5"/>
<path opacity="0.2" d="M352.545 319.836C352.545 320.346 352.292 321.109 352.292 321.619H322.982C322.477 322.382 321.719 322.891 320.708 322.891C319.445 322.891 318.181 321.873 318.181 320.346C318.181 318.818 319.192 317.8 320.708 317.8C321.719 317.8 322.729 318.564 322.982 319.582H352.545V319.836Z" fill="#87ABC5"/>
<path opacity="0.2" d="M349.513 335.62C349.26 336.384 349.26 337.148 349.007 337.911L344.459 333.329C344.207 333.329 343.954 333.329 343.701 333.329C342.438 333.329 341.174 332.311 341.174 330.783C341.174 329.51 342.185 328.237 343.701 328.237C344.965 328.237 346.228 329.256 346.228 330.783C346.228 331.292 346.228 331.547 345.975 332.056L349.513 335.62Z" fill="#87ABC5"/>
<path opacity="0.2" d="M337.384 376.099C337.131 376.862 336.626 377.372 336.373 377.881H321.971L315.401 384.5L314.896 383.991C315.149 384.245 315.149 384.754 315.149 385.264C315.149 386.536 314.138 387.809 312.622 387.809C311.359 387.809 310.095 386.791 310.095 385.264C310.095 383.736 311.106 382.718 312.622 382.718C313.127 382.718 313.633 382.972 313.885 383.227L320.96 376.099H337.384Z" fill="#87ABC5"/>
<path opacity="0.2" d="M334.1 382.209C333.847 382.972 333.342 383.482 332.836 383.991H323.235L316.665 390.61C316.918 390.864 316.918 391.374 316.918 391.628C316.918 392.901 315.907 394.174 314.391 394.174C313.128 394.174 311.864 393.156 311.864 391.628C311.864 390.355 312.875 389.082 314.391 389.082C314.644 389.082 314.896 389.082 315.149 389.337L322.477 381.954H334.1V382.209Z" fill="#87ABC5"/>
<path opacity="0.2" d="M307.569 399.52C307.569 398.248 306.558 396.975 305.042 396.975C303.526 396.975 302.516 397.993 302.516 399.52C302.516 399.775 302.516 400.03 302.516 400.03L291.398 411.231C291.145 410.977 290.64 410.977 290.387 410.977C289.124 410.977 287.86 411.995 287.86 413.522C287.86 414.795 288.871 416.068 290.387 416.068C291.651 416.068 292.914 415.05 292.914 413.522C292.914 413.268 292.914 413.013 292.661 412.759L303.779 401.557C304.032 401.812 304.537 401.812 305.042 401.812C306.558 402.066 307.569 401.048 307.569 399.52Z" fill="#87ABC5"/>
<path opacity="0.2" d="M307.063 386.537C307.063 385.264 306.053 383.991 304.537 383.991C303.021 383.991 302.01 385.01 302.01 386.537C302.01 386.792 302.01 387.046 302.263 387.301L291.65 397.993C291.398 397.739 290.892 397.739 290.64 397.739C289.376 397.739 288.113 398.757 288.113 400.284C288.113 401.557 289.123 402.83 290.64 402.83C291.903 402.83 293.166 401.812 293.166 400.284C293.166 400.03 293.166 399.775 292.914 399.521L303.526 388.828C303.779 389.083 304.284 389.083 304.537 389.083C306.053 389.083 307.063 388.064 307.063 386.537Z" fill="#87ABC5"/>
<path opacity="0.2" d="M292.155 384.245C292.155 385.518 291.144 386.791 289.628 386.791C289.123 386.791 288.87 386.791 288.618 386.536C288.618 386.791 288.365 386.791 288.365 387.045C288.112 387.3 287.86 387.809 287.607 388.064V388.318L282.806 393.155V416.577C282.301 416.068 281.543 415.813 281.037 415.304V392.392L286.344 387.045C286.596 386.791 286.849 386.536 286.849 386.027C287.102 385.773 287.354 385.518 287.607 385.009C287.607 384.754 287.354 384.5 287.354 384.245C287.354 382.972 288.365 381.699 289.881 381.699C291.397 381.699 292.155 382.972 292.155 384.245Z" fill="#87ABC5"/>
<path opacity="0.2" d="M283.059 375.081C283.059 373.808 282.049 372.535 280.533 372.535C279.269 372.535 278.006 373.553 278.006 375.081C278.006 375.59 278.259 376.099 278.511 376.354L270.426 384.5C270.173 384.246 269.668 384.246 269.162 384.246C267.899 384.246 266.636 385.264 266.636 386.792C266.636 388.065 267.646 389.337 269.162 389.337C270.678 389.337 271.689 388.319 271.689 386.792C271.689 386.283 271.689 386.028 271.436 385.773L271.689 386.028L279.522 378.136L279.269 377.372C279.522 377.627 280.027 377.627 280.533 377.627C281.796 377.627 283.059 376.354 283.059 375.081Z" fill="#87ABC5"/>
<path opacity="0.2" d="M288.113 373.044C288.113 374.317 289.123 375.59 290.64 375.59C291.903 375.59 293.166 374.571 293.166 373.044C293.166 372.535 292.914 372.28 292.914 371.771L300.494 364.134C300.747 363.879 300.747 363.879 300.999 363.625L301.252 363.37C301.505 363.37 301.757 363.37 302.01 363.37C303.273 363.37 304.537 362.352 304.537 360.824C304.537 359.551 303.526 358.278 302.01 358.278C300.494 358.278 299.483 359.297 299.483 360.824C299.483 361.333 299.483 361.588 299.736 362.097L299.483 362.352C299.483 362.606 299.23 362.606 299.23 362.861L291.398 370.753C291.145 370.753 290.892 370.753 290.64 370.753C289.376 370.753 288.113 371.771 288.113 373.044Z" fill="#87ABC5"/>
<path opacity="0.2" d="M277.753 333.839C277.753 332.566 276.742 331.293 275.226 331.293C273.71 331.293 272.7 332.311 272.7 333.839C272.7 334.857 273.458 335.875 274.216 336.13C274.216 343.004 273.963 354.714 273.963 355.733L273.71 358.278L281.543 350.387C281.796 350.641 282.301 350.641 282.807 350.641C284.07 350.641 285.333 349.623 285.333 348.095C285.333 346.568 284.323 345.549 282.807 345.549C281.291 345.549 280.28 346.568 280.28 348.095C280.28 348.35 280.28 348.35 280.28 348.604C280.28 348.859 280.027 348.859 280.027 349.114L275.984 353.441C275.984 348.859 276.237 339.185 276.237 336.13C276.995 335.875 277.753 335.112 277.753 333.839Z" fill="#87ABC5"/>
<path opacity="0.2" d="M277.753 284.196C277.753 282.923 276.742 281.65 275.226 281.65C273.71 281.65 272.7 282.668 272.7 284.196C272.7 285.214 273.205 285.978 274.216 286.487V316.527C274.216 317.546 274.216 318.564 274.216 319.328C274.216 319.582 274.216 319.837 274.216 319.837C273.205 320.092 272.7 321.11 272.7 322.128C272.7 323.401 273.71 324.674 275.226 324.674C276.742 324.674 277.753 323.656 277.753 322.128C277.753 321.11 276.995 320.092 276.237 319.837C276.237 319.582 276.237 319.328 276.237 319.073C276.237 318.055 276.237 317.291 276.237 316.273V286.487C276.995 286.232 277.753 285.469 277.753 284.196Z" fill="#87ABC5"/>
<path opacity="0.2" d="M289.124 294.124C289.124 295.142 289.882 296.161 290.893 296.415V303.543C289.882 303.798 289.124 304.816 289.124 305.835C289.124 307.108 290.134 308.38 291.651 308.38C293.167 308.38 294.177 307.362 294.177 305.835C294.177 304.816 293.672 304.053 292.661 303.543V296.415C293.419 295.906 294.177 295.142 294.177 294.124C294.177 292.851 293.167 291.578 291.651 291.578C290.134 291.578 289.124 292.851 289.124 294.124Z" fill="#87ABC5"/>
<path opacity="0.2" d="M268.152 284.705V370.244H266.888L256.023 381.191V381.446C256.023 381.955 256.023 382.719 256.023 383.228V392.647C255.265 391.883 254.76 391.12 254.255 390.356V383.228C254.255 382.719 254.255 381.955 254.255 381.446C254.255 380.937 254.255 380.173 254.255 379.664V377.118L255.771 379.154L266.13 368.717H266.383V285.978C266.888 285.469 267.394 285.214 268.152 284.705Z" fill="#87ABC5"/>
<path opacity="0.2" d="M239.094 344.277C239.094 345.55 238.083 346.823 236.567 346.823C235.809 346.823 235.304 346.568 234.798 346.059C234.293 345.55 234.04 345.041 234.04 344.277C234.04 344.022 234.04 343.513 234.293 343.259C234.546 342.495 235.051 341.986 235.809 341.731V300.998C235.304 300.998 235.051 300.489 234.798 300.234C235.051 300.234 235.556 300.234 235.809 299.98C236.567 299.98 237.578 299.725 238.841 299.471C238.589 299.98 238.083 300.489 237.578 300.744V341.731C238.336 342.495 239.094 343.259 239.094 344.277Z" fill="#87ABC5"/>
<path opacity="0.2" d="M253.749 361.078L246.421 368.461C246.421 368.716 246.421 368.716 246.421 368.97C246.421 370.243 245.411 371.516 243.895 371.516C243.389 371.516 242.884 371.262 242.631 371.007C241.873 370.498 241.62 369.734 241.62 368.97C241.62 368.716 241.62 368.716 241.62 368.461C241.873 367.188 242.884 366.425 244.147 366.425C244.653 366.425 245.158 366.679 245.411 366.934L251.98 360.315V294.887C252.485 294.633 253.244 294.124 253.749 293.869V361.078Z" fill="#87ABC5"/>
<path opacity="0.2" d="M320.708 289.287H301.252C300.999 290.305 299.988 290.814 298.978 290.814C297.714 290.814 296.451 289.796 296.451 288.268C296.451 286.741 297.462 285.723 298.978 285.723C299.988 285.723 300.999 286.486 301.252 287.25H317.676C318.686 288.014 319.697 288.523 320.708 289.287Z" fill="#87ABC5"/>
<path opacity="0.2" d="M335.363 297.179H301C300.747 298.197 299.736 298.961 298.725 298.961C297.462 298.961 296.199 297.942 296.199 296.415C296.199 295.142 297.209 293.869 298.725 293.869C299.736 293.869 300.494 294.378 301 295.142H331.573C332.584 295.651 333.595 296.16 334.353 296.67C334.353 296.924 334.858 297.179 335.363 297.179Z" fill="#87ABC5"/>
<path opacity="0.2" d="M303.526 300.743C302.262 300.743 300.999 301.761 300.999 303.289C300.999 304.816 302.01 305.835 303.526 305.835C304.536 305.835 305.294 305.326 305.8 304.562H345.975C346.228 305.58 347.238 306.089 348.249 306.089C349.512 306.089 350.776 305.071 350.776 303.544C350.776 302.016 349.765 300.998 348.249 300.998C347.238 300.998 346.228 301.761 345.975 302.525H306.052C305.8 301.507 304.789 300.743 303.526 300.743Z" fill="#87ABC5"/>
<path opacity="0.2" d="M353.808 309.654C353.808 310.163 353.808 310.927 353.556 311.436H299.231C298.725 312.199 297.967 312.963 296.956 312.963C295.693 312.963 294.43 311.945 294.43 310.417C294.43 309.144 295.44 307.872 296.956 307.872C297.967 307.872 298.978 308.635 299.231 309.654H353.808Z" fill="#87ABC5"/>
<path opacity="0.2" d="M310.096 282.413C309.59 283.177 308.832 283.686 308.074 283.686C306.811 283.686 305.547 282.668 305.547 281.14C305.547 280.886 305.547 280.377 305.8 280.122C307.063 280.886 308.579 281.65 310.096 282.413Z" fill="#87ABC5"/>
<path opacity="0.2" d="M300.241 320.092C300.241 321.11 300.999 322.128 302.01 322.383V350.132C300.999 350.387 300.241 351.405 300.241 352.423C300.241 353.696 301.252 354.969 302.768 354.969C304.031 354.969 305.294 353.951 305.294 352.423C305.294 351.405 304.789 350.641 303.778 350.132V322.638V322.383C304.536 321.874 305.042 321.11 305.042 320.092C305.042 318.819 304.031 317.546 302.515 317.546C301.252 317.546 300.241 318.819 300.241 320.092Z" fill="#87ABC5"/>
<path opacity="0.2" d="M306.811 320.092C306.811 321.11 307.569 322.128 308.327 322.383V362.352L296.198 374.572L296.451 374.827C296.198 374.572 295.693 374.572 295.188 374.572C293.924 374.572 292.661 375.59 292.661 377.118C292.661 378.645 293.671 379.664 295.188 379.664C296.451 379.664 297.714 378.645 297.714 377.118C297.714 376.609 297.714 376.354 297.462 375.845L310.095 363.116V322.383C311.106 322.128 311.611 321.11 311.611 320.092C311.611 318.819 310.601 317.546 309.085 317.546C307.569 317.546 306.811 318.819 306.811 320.092Z" fill="#87ABC5"/>
<path opacity="0.2" d="M293.671 320.091C293.671 321.109 294.177 321.873 294.935 322.382V357.769L289.881 362.861C289.376 363.37 288.871 363.879 288.113 364.643C287.607 365.152 287.355 365.406 286.849 365.916C286.597 365.916 286.344 365.661 286.091 365.661C284.828 365.661 283.564 366.679 283.564 368.207C283.564 369.734 284.575 370.753 286.091 370.753C287.355 370.753 288.618 369.734 288.618 368.207C288.618 367.698 288.618 367.443 288.365 367.188C288.618 366.934 289.123 366.425 289.376 366.17C289.881 365.661 290.387 365.152 291.145 364.388L296.704 358.787V322.637C297.714 322.382 298.472 321.364 298.472 320.346C298.472 319.073 297.462 317.8 295.946 317.8C294.429 317.8 293.671 318.818 293.671 320.091Z" fill="#87ABC5"/>
<path opacity="0.2" d="M287.102 320.092C287.102 321.11 287.86 322.128 288.618 322.383V355.733L282.807 361.588C282.554 361.334 282.049 361.334 281.796 361.334C280.533 361.334 279.269 362.352 279.269 363.88C279.269 365.407 280.28 366.425 281.796 366.425C283.06 366.425 284.323 365.407 284.323 363.88C284.323 363.625 284.323 363.37 284.07 363.116L290.64 356.497V322.383C291.65 322.128 292.156 321.11 292.156 320.092C292.156 318.819 291.145 317.546 289.629 317.546C288.113 317.546 287.102 318.819 287.102 320.092Z" fill="#87ABC5"/>
<path opacity="0.2" d="M328.288 390.61C327.783 391.374 327.025 392.138 326.519 392.902L324.245 390.61H328.288Z" fill="#87ABC5"/>
<path opacity="0.2" d="M320.202 399.775C319.444 400.284 318.939 401.048 318.433 401.557H316.665C316.159 402.321 315.401 402.83 314.643 402.83C313.38 402.83 312.117 401.812 312.117 400.284C312.117 399.011 313.127 397.738 314.643 397.738C315.907 397.738 316.665 398.502 316.917 399.52H320.202V399.775Z" fill="#87ABC5"/>
<path d="M352.545 302.27C351.029 300.488 348.755 299.47 346.228 299.47C338.648 299.47 328.541 293.106 318.686 286.996C314.391 284.45 310.095 281.649 306.053 279.358C299.23 275.54 294.935 274.267 290.892 274.267C284.07 274.267 277.753 278.085 265.372 285.723C261.582 288.269 257.034 290.814 251.728 294.124C245.411 297.688 240.357 298.706 236.567 299.47C227.218 301.507 225.702 302.525 230.25 326.965C232.272 338.421 237.578 360.315 240.863 368.461C241.115 369.225 241.621 370.243 241.873 371.007C249.201 389.082 266.13 407.158 286.849 419.377C288.365 420.141 289.629 420.65 291.145 420.65C294.43 420.65 298.22 418.614 306.305 412.504C309.085 410.467 311.359 408.685 313.38 406.903C315.402 405.121 317.423 403.339 319.192 401.557C328.541 392.647 335.11 382.718 340.416 369.734C340.669 369.225 340.922 368.461 341.174 367.952C341.932 365.916 342.69 363.879 343.448 361.842C343.954 360.315 344.459 358.787 344.965 357.26C349.007 344.531 352.039 329.256 354.313 310.926C354.566 309.908 354.566 308.635 354.566 308.635C354.819 306.598 354.061 304.307 352.545 302.27ZM307.821 401.557C301.505 406.903 295.693 410.722 291.903 413.013C291.65 413.013 291.65 413.013 291.398 413.013C291.145 413.013 290.892 413.013 290.639 412.758C280.28 406.648 255.518 389.592 246.421 361.588C239.347 338.166 236.314 319.582 235.051 308.126C235.051 307.871 235.051 307.871 235.051 307.617C235.304 307.362 235.556 307.362 235.809 307.362C245.663 307.107 257.792 299.47 268.657 292.596C277.5 286.996 285.839 281.904 290.892 281.904C295.693 281.904 304.031 286.996 312.622 292.596C323.993 299.47 336.626 307.362 346.228 307.362C346.481 307.362 346.481 307.362 346.481 307.617C346.481 307.871 346.733 308.126 346.733 308.38C345.723 317.8 343.448 333.075 338.142 352.423C337.89 353.696 337.384 354.714 337.132 355.987C336.626 358.024 336.121 360.06 335.363 362.097C330.815 376.863 321.971 388.319 313.38 396.465C311.611 398.247 309.59 400.029 307.821 401.557Z" fill="#87ABC5"/>
<path d="M287.861 364.134C286.092 364.134 284.576 363.37 283.312 362.097L270.173 348.859C268.91 347.586 268.91 345.804 270.173 344.531L275.227 339.44C276.49 338.167 278.259 338.167 279.522 339.44L286.092 346.059C287.355 347.332 289.124 347.332 290.387 346.059L309.591 326.711C310.854 325.438 312.623 325.438 313.886 326.711L318.94 331.802C320.203 333.075 320.203 334.857 318.94 336.13L292.409 362.097C291.145 363.37 289.629 364.134 287.861 364.134Z" fill="white"/>
</g>
<defs>
<filter id="filter0_d" x="224.734" y="274.267" width="132.925" height="152.473" filterUnits="userSpaceOnUse" color-interpolation-filters="sRGB">
<feFlood flood-opacity="0" result="BackgroundImageFix"/>
<feColorMatrix in="SourceAlpha" type="matrix" values="0 0 0 0 0 0 0 0 0 0 0 0 0 0 0 0 0 0 127 0"/>
<feOffset dy="3.04444"/>
<feGaussianBlur stdDeviation="1.52222"/>
<feColorMatrix type="matrix" values="0 0 0 0 0 0 0 0 0 0 0 0 0 0 0 0 0 0 0.25 0"/>
<feBlend mode="normal" in2="BackgroundImageFix" result="effect1_dropShadow"/>
<feBlend mode="normal" in="SourceGraphic" in2="effect1_dropShadow" result="shape"/>
</filter>
<linearGradient id="paint0_linear" x1="284.583" y1="381" x2="284.583" y2="166.575" gradientUnits="userSpaceOnUse">
<stop stop-color="#1A2533"/>
<stop offset="1" stop-color="#1A2533" stop-opacity="0"/>
</linearGradient>
</defs>
</svg>
