<svg width="76" height="51" viewBox="0 0 76 51" fill="none" xmlns="http://www.w3.org/2000/svg">
<path d="M73.4916 0C74.6648 0 75.5866 0.922696 75.5866 2.09704V48.7351V51C75.5866 51 1.17318 51 0 51V48.7351V2.09704C0 0.922696 0.921788 0 2.09497 0H73.4916Z" fill="#BCC8CE" fill-opacity="0.3"/>
<path d="M12.905 46.1348H5.94971V47.1403H12.905V46.1348Z" fill="#87ABC5"/>
<path d="M26.8996 46.1348H19.9443V47.1403H26.8996V46.1348Z" fill="#87ABC5"/>
<path d="M40.9778 46.1348H34.0225V47.1403H40.9778V46.1348Z" fill="#87ABC5"/>
<path d="M54.9722 46.1348H48.0168V47.1403H54.9722V46.1348Z" fill="#87ABC5"/>
<path d="M69.0503 46.1348H62.095V47.1403H69.0503V46.1348Z" fill="#87ABC5"/>
<path d="M75.5866 0V4.94901H0V0H2.09497H73.4916H75.5866Z" fill="#87ABC5"/>
<path d="M2.5139 3.27179C2.88414 3.27179 3.18429 2.97135 3.18429 2.60074C3.18429 2.23013 2.88414 1.92969 2.5139 1.92969C2.14365 1.92969 1.84351 2.23013 1.84351 2.60074C1.84351 2.97135 2.14365 3.27179 2.5139 3.27179Z" fill="#BCC8CE" fill-opacity="0.3"/>
<path d="M4.44139 3.27179C4.81163 3.27179 5.11178 2.97135 5.11178 2.60074C5.11178 2.23013 4.81163 1.92969 4.44139 1.92969C4.07114 1.92969 3.771 2.23013 3.771 2.60074C3.771 2.97135 4.07114 3.27179 4.44139 3.27179Z" fill="#BCC8CE" fill-opacity="0.3"/>
<path d="M6.36863 3.27179C6.73888 3.27179 7.03902 2.97135 7.03902 2.60074C7.03902 2.23013 6.73888 1.92969 6.36863 1.92969C5.99839 1.92969 5.69824 2.23013 5.69824 2.60074C5.69824 2.97135 5.99839 3.27179 6.36863 3.27179Z" fill="#BCC8CE" fill-opacity="0.3"/>
<path opacity="0.25" d="M33.1003 42.8638H5.19531V17.7832C6.61989 17.8671 8.12827 18.0348 9.46906 18.7059C10.0556 18.9575 10.5584 19.377 10.8936 19.9641C11.0612 20.2158 11.145 20.3835 11.145 20.6352C11.3126 21.3901 11.8154 21.8934 12.4858 21.9773L13.1562 22.0612C14.4132 22.2289 15.335 23.2355 15.4188 24.4937L15.5864 26.5908C16.9272 27.0102 17.0948 27.094 18.2679 27.5135C18.4355 27.5973 18.5193 27.5135 18.6031 27.4296C18.6869 27.3457 18.8545 27.2618 18.9383 27.2618C19.1059 27.2618 19.1897 27.2618 19.3573 27.1779C19.5249 27.094 19.7763 27.094 19.8601 27.3457C20.3629 28.3523 21.4523 28.9394 22.0389 29.8621C22.7931 30.8687 23.9663 30.7009 24.8043 30.7848C25.0556 30.7848 25.307 30.9526 25.5584 31.1204C26.6478 32.2108 28.24 35.65 29.5808 35.65C30.0836 35.65 30.5026 35.9016 30.8378 36.321C32.011 38.3342 32.7651 40.4312 33.1003 42.8638Z" fill="#1A2533"/>
<path d="M5.19531 17.7832C6.61989 17.8671 8.12827 18.0348 9.46906 18.7059C10.0556 18.9575 10.5584 19.377 10.8936 19.9641C11.0612 20.2158 11.145 20.3835 11.145 20.6352C11.3126 21.3901 11.8154 21.8934 12.4858 21.9773L13.1562 22.0612C14.4132 22.2289 15.335 23.2355 15.4188 24.4937L15.5864 26.5908C16.9272 27.0102 17.0948 27.094 18.2679 27.5135C18.4355 27.5973 18.5193 27.5135 18.6031 27.4296C18.6869 27.3457 18.8545 27.2618 18.9383 27.2618C19.1059 27.2618 19.1897 27.2618 19.3573 27.1779C19.5249 27.094 19.7763 27.094 19.8601 27.3457C20.3629 28.3523 21.4523 28.9394 22.0389 29.8621C22.7931 30.8687 23.9663 30.701 24.8043 30.7848C25.0556 30.7848 25.307 30.9526 25.5584 31.1204C26.6478 32.2108 28.24 35.65 29.5808 35.65C30.0836 35.65 30.5026 35.9016 30.8378 36.321C32.0948 38.3342 32.8489 40.4312 33.1841 42.8638" stroke="#1A2533" stroke-width="1.5" stroke-miterlimit="10"/>
<path opacity="0.25" d="M69.0502 9.5625V42.8634H41.0614C40.8938 42.8634 40.81 42.6118 40.9776 42.444C42.4022 41.1858 41.3128 40.5986 42.2346 39.2565C42.9888 37.9983 43.4915 34.3914 44.9161 34.2237C46.4245 33.972 48.1005 29.7779 48.6033 27.0937C48.6871 26.7582 48.9385 26.5066 49.2737 26.5066C50.3631 26.5066 51.3686 25.8355 51.9552 24.9128C52.5418 24.074 52.877 23.0674 53.1284 21.977C53.2122 21.5576 53.5474 21.3898 53.8826 21.3059C54.3016 21.222 54.7206 20.8026 54.8882 20.3832C54.8882 20.2993 54.972 20.2154 54.972 20.1316C55.0558 19.796 55.3072 19.6283 55.5586 19.5444C55.81 19.4605 56.1452 19.4605 56.3966 19.7122C56.4804 19.7122 56.4804 19.796 56.5642 19.7122C56.648 19.7122 56.648 19.6283 56.648 19.5444C57.2346 17.3635 57.905 15.0987 59.0781 13.1694C59.4971 12.4145 60.0837 11.7434 60.7541 11.1562C61.6759 10.4013 62.8491 10.0658 64.0223 9.98191C65.1955 9.89803 66.3686 10.3174 67.5418 10.0658C67.9608 9.89803 68.5474 9.5625 69.0502 9.5625Z" fill="url(#paint0_linear)"/>
<path d="M40.5 43C41 42.5 40.8101 42.6118 40.9777 42.444C42.4023 41.1858 41.3129 40.5986 42.2347 39.2565C42.9889 37.9983 43.4917 34.3914 44.9163 34.2237C46.4246 33.972 48.1006 29.7779 48.6034 27.0937C48.6872 26.7582 48.9386 26.5066 49.2738 26.5066C50.3632 26.5066 51.3688 25.8355 51.9554 24.9128C52.542 24.074 52.8772 23.0674 53.1286 21.977C53.2124 21.5575 53.5476 21.3898 53.8827 21.3059C54.3017 21.222 54.7207 20.8026 54.8883 20.3832C54.8883 20.2993 54.9721 20.2154 54.9721 20.1316C55.0559 19.796 55.3073 19.6283 55.5587 19.5444C55.8101 19.4605 56.1453 19.4605 56.3967 19.7122C56.4805 19.7122 56.4805 19.796 56.5643 19.7122C56.6481 19.7122 56.6481 19.6283 56.6481 19.5444C57.2347 17.3635 57.9051 15.0987 59.0783 13.1694C59.4973 12.4145 60.0839 11.7434 60.7542 11.1562C61.676 10.4013 62.8492 10.0658 64.0224 9.98191C65.1956 9.89803 66.3688 10.3174 67.542 10.0658C67.8771 9.98191 68.5475 9.64638 68.9665 9.5625" stroke="#F07F53" stroke-width="1.5" stroke-miterlimit="10"/>
<defs>
<linearGradient id="paint0_linear" x1="40.8402" y1="26.185" x2="69.0407" y2="26.185" gradientUnits="userSpaceOnUse">
<stop stop-color="#F07F53"/>
<stop offset="1" stop-color="#F07F53"/>
</linearGradient>
</defs>
</svg>
