<svg width="81" height="81" viewBox="0 0 81 81" fill="none" xmlns="http://www.w3.org/2000/svg">
<path d="M40.2897 9.66076V22.5635C40.2897 23.6855 39.6369 24.8074 38.7043 25.3684L28.8184 31.0718C28.2588 31.4458 27.5127 31.6328 26.8599 31.6328V15.5511L39.8234 8.07129C40.1965 8.53878 40.2897 9.09977 40.2897 9.66076Z" fill="#799FBB"/>
<path d="M26.8598 15.5511V31.6328C26.2069 31.6328 25.5541 31.4458 24.9013 31.0718L15.0154 25.3684C13.9895 24.8074 13.4299 23.779 13.4299 22.5635V9.66076C13.4299 9.09977 13.6165 8.53878 13.8962 8.07129L26.8598 15.5511Z" fill="#87ABC5"/>
<path d="M39.8233 8.07082L26.8598 15.5507L13.8962 7.97732C14.176 7.50983 14.5491 7.04234 15.1087 6.76185L25.1811 0.964965C26.1137 0.403976 27.3261 0.403976 28.352 0.871467L38.7974 6.94884C38.7974 6.94884 38.7974 6.94884 38.8907 6.94884C39.2637 7.22934 39.6368 7.60333 39.8233 8.07082Z" fill="#AEC3CF"/>
<path d="M67.1493 9.66076V22.5635C67.1493 23.6855 66.4965 24.8074 65.5639 25.3684L55.678 31.0718C55.1184 31.4458 54.3723 31.6328 53.7195 31.6328V15.5511L66.683 8.07129C67.0561 8.53878 67.1493 9.09977 67.1493 9.66076Z" fill="#799FBB"/>
<path d="M53.7194 15.5511V31.6328C53.0666 31.6328 52.4137 31.4458 51.7609 31.0718L41.9683 25.3684C40.9424 24.8074 40.3828 23.779 40.3828 22.5635V9.66076C40.3828 9.09977 40.5693 8.53878 40.8491 8.07129L53.7194 15.5511Z" fill="#87ABC5"/>
<path d="M66.7762 8.07106L53.8127 15.5509L40.7559 7.97756C41.0356 7.51007 41.4087 7.04258 41.9683 6.76208L52.1339 0.871703C53.0666 0.310715 54.279 0.310715 55.3049 0.778205L65.7503 6.85558C65.7503 6.85558 65.7503 6.85558 65.8436 6.85558C66.1234 7.22957 66.4964 7.60357 66.7762 8.07106Z" fill="#AEC3CF"/>
<path d="M40.3827 58.4664V71.3692C40.3827 72.4911 39.7299 73.6131 38.7973 74.1741L28.9114 79.8775C28.3518 80.2515 27.6057 80.4385 26.9529 80.4385V64.3568L39.9164 56.877C40.1962 57.3444 40.3827 57.9054 40.3827 58.4664Z" fill="#799FBB"/>
<path d="M26.9528 64.3568V80.4385C26.3 80.4385 25.6471 80.2515 24.9943 79.8775L15.1084 74.1741C14.0825 73.6131 13.5229 72.5846 13.5229 71.3692V58.4664C13.5229 57.9054 13.7095 57.3444 13.9893 56.877L26.9528 64.3568Z" fill="#87ABC5"/>
<path d="M39.9163 56.8772L26.9528 64.3571L13.896 56.7837C14.1758 56.3162 14.5488 55.8487 15.1084 55.5682L25.2741 49.6779C26.2067 49.1169 27.4191 49.1169 28.445 49.5844L38.8904 55.6617C38.8904 55.6617 38.8904 55.6617 38.9837 55.6617C39.3568 56.0357 39.7298 56.4097 39.9163 56.8772Z" fill="#AEC3CF"/>
<path d="M67.2426 58.4664V71.3692C67.2426 72.4911 66.5898 73.6131 65.6571 74.1741L55.7713 79.8775C55.2117 80.2515 54.4656 80.4385 53.8127 80.4385V64.3568L66.7763 56.877C67.0561 57.3444 67.2426 57.9054 67.2426 58.4664Z" fill="#799FBB"/>
<path d="M53.8127 64.3568V80.4385C53.1598 80.4385 52.507 80.2515 51.8541 79.8775L41.9683 74.1741C40.9424 73.6131 40.3828 72.5846 40.3828 71.3692V58.4664C40.3828 57.9054 40.5693 57.3444 40.8491 56.877L53.8127 64.3568Z" fill="#87ABC5"/>
<path d="M66.7762 56.8772L53.8127 64.3571L40.7559 56.7837C41.0356 56.3162 41.4087 55.8487 41.9683 55.5682L52.1339 49.6779C53.0666 49.1169 54.279 49.1169 55.3049 49.5844L65.7503 55.6617C65.7503 55.6617 65.7503 55.6617 65.8436 55.6617C66.2166 56.0357 66.5897 56.4097 66.7762 56.8772Z" fill="#AEC3CF"/>
<path d="M26.8598 34.0636V46.9663C26.8598 48.0883 26.2069 49.2103 25.2743 49.7713L15.3885 55.4747C14.8289 55.8486 14.0828 56.0356 13.4299 56.0356V39.954L26.3935 32.4741C26.7665 32.9416 26.8598 33.5026 26.8598 34.0636Z" fill="#799FBB"/>
<path d="M13.4299 39.954V56.0356C12.777 56.0356 12.1242 55.8486 11.4713 55.4747L1.58547 49.7713C0.559577 49.2103 0 48.1818 0 46.9663V34.0636C0 33.5026 0.186526 32.9416 0.466314 32.4741L13.4299 39.954Z" fill="#87ABC5"/>
<path d="M26.4867 32.4739L13.5231 39.9537L0.466309 32.3804C0.746097 31.9129 1.11915 31.4454 1.67873 31.1649L11.8444 25.2745C12.777 24.7135 13.9894 24.7135 15.0153 25.181L25.3675 31.3519C25.3675 31.3519 25.3675 31.3519 25.4608 31.3519C25.8338 31.6324 26.2069 32.0064 26.4867 32.4739Z" fill="#AEC3CF"/>
<path d="M80.672 34.0636V46.9663C80.672 48.0883 80.0192 49.2103 79.0866 49.7713L69.2007 55.4747C68.6411 55.8486 67.895 56.0356 67.2422 56.0356V39.954L80.2057 32.4741C80.4855 32.9416 80.672 33.5026 80.672 34.0636Z" fill="#799FBB"/>
<path d="M67.2424 39.954V56.0356C66.5895 56.0356 65.9367 55.8486 65.2838 55.4747L55.398 49.7713C54.3721 49.2103 53.8125 48.1818 53.8125 46.9663V34.0636C53.8125 33.5026 53.999 32.9416 54.2788 32.4741L67.2424 39.954Z" fill="#87ABC5"/>
<path d="M80.2059 32.4739L67.2424 39.9537L54.1855 32.3804C54.4653 31.9129 54.8384 31.4454 55.398 31.1649L65.5636 25.2745C66.4963 24.7135 67.7087 24.7135 68.7346 25.181L79.0867 31.3519C79.0867 31.3519 79.0867 31.3519 79.18 31.3519C79.6463 31.6324 79.9261 32.0064 80.2059 32.4739Z" fill="#AEC3CF"/>
<path d="M55.4914 33.783V48.1818C55.4914 49.4907 54.8386 50.7062 53.6261 51.3607L42.5279 57.8121C41.875 58.1861 41.1289 58.3731 40.3828 58.3731V40.3279L55.0251 31.9131C55.3049 32.4741 55.4914 33.1286 55.4914 33.783Z" fill="#F07F53"/>
<path d="M40.3828 40.3281V51.7349V58.3733C39.6367 58.3733 38.8906 58.1863 38.2377 57.8123L33.388 55.0074L27.0462 51.3609C25.927 50.7064 25.2742 49.491 25.1809 48.2755V33.6898C25.1809 33.0353 25.3674 32.3808 25.6472 31.8198L40.3828 40.3281Z" fill="#D57049"/>
<path d="M54.9318 31.9132L40.2895 40.328L25.6472 31.8197C25.927 31.2587 26.3933 30.7912 26.9529 30.5107L38.331 23.8724C39.4501 23.2179 40.7558 23.2179 41.875 23.7789L53.6261 30.6042C53.6261 30.6042 53.7193 30.6042 53.7193 30.6977C54.2789 31.0717 54.652 31.4457 54.9318 31.9132Z" fill="#FFA683"/>
<path d="M47.0978 42.2916C47.0978 42.3851 47.0978 42.4785 47.0045 42.572C46.9112 42.8525 46.818 43.133 46.7247 43.4135C46.7247 43.4135 46.7247 43.4135 46.7247 43.507C45.7921 45.751 43.8336 47.3404 41.502 47.8079H41.4087C40.5694 47.9949 39.73 47.9014 38.8906 47.8079C35.0669 46.9665 32.7353 43.32 33.4814 39.5801C34.2275 35.7467 37.958 33.3157 41.6885 34.1572C42.9942 34.4377 44.2066 35.0922 45.2325 36.0272C46.9112 37.6166 47.6574 40.0476 47.0978 42.2916Z" fill="white"/>
<path d="M39.4502 43.5071C39.2637 43.5071 38.9839 43.4136 38.7974 43.2266L37.0254 41.4502C36.6523 41.0762 36.6523 40.6087 37.0254 40.2347C37.3984 39.8607 37.8648 39.8607 38.2378 40.2347L39.357 41.3567L42.2481 38.4582C42.6212 38.0842 43.0875 38.0842 43.4605 38.4582C43.8336 38.8322 43.8336 39.2997 43.4605 39.6737L40.1031 43.3201C39.9165 43.4136 39.73 43.5071 39.4502 43.5071Z" fill="url(#paint0_linear)"/>
<defs>
<linearGradient id="paint0_linear" x1="42.2988" y1="42.0121" x2="39.2401" y2="38.9611" gradientUnits="userSpaceOnUse">
<stop stop-color="#FF956C"/>
<stop offset="1" stop-color="#FF956C"/>
</linearGradient>
</defs>
</svg>
