<svg width="88" height="49" viewBox="0 0 88 49" fill="none" xmlns="http://www.w3.org/2000/svg">
<path d="M0 30.6821C0 32.6991 0 37.3803 0 37.3803C0 37.3803 5.66636 37.3803 7.56115 37.3803H74.5686C75.2205 37.3803 75.8723 37.6112 76.2634 37.9577L85.6496 46.2727C85.9104 46.6191 87.7355 48.1294 87.7355 48.1294C87.7355 48.1294 87.7355 45.9262 87.7355 45.5798V7.12298C87.7355 5.3346 87.7355 0.424805 87.7355 0.424805C87.7355 0.424805 82.3272 0.424805 80.1743 0.424805H7.56115C5.38507 0.424805 0 0.424805 0 0.424805C0 0.424805 0 5.35516 0 7.12298V30.6821Z" fill="#7CA1BD"/>
<path opacity="0.7" d="M71.3096 15.4371H13.6884C13.167 15.4371 12.6455 14.9753 12.6455 14.5135V11.5116C12.6455 11.0497 13.167 10.5879 13.6884 10.5879H71.3096C71.8311 10.5879 72.3525 11.0497 72.3525 11.5116V14.5135C72.3525 15.0908 71.9614 15.4371 71.3096 15.4371Z" fill="url(#paint0_linear)"/>
<path opacity="0.7" d="M49.1476 28.0254H13.6884C13.167 28.0254 12.6455 27.5635 12.6455 27.1016V24.0991C12.6455 23.6372 13.167 23.1753 13.6884 23.1753H49.1476C49.6691 23.1753 50.1906 23.6372 50.1906 24.0991V27.1016C50.1906 27.679 49.7995 28.0254 49.1476 28.0254Z" fill="url(#paint1_linear)"/>
<defs>
<linearGradient id="paint0_linear" x1="73.9423" y1="13.0515" x2="13.1339" y2="13.0515" gradientUnits="userSpaceOnUse">
<stop offset="0.00651336" stop-color="white"/>
<stop offset="1" stop-color="white"/>
</linearGradient>
<linearGradient id="paint1_linear" x1="53.3206" y1="25.6117" x2="12.0722" y2="25.6117" gradientUnits="userSpaceOnUse">
<stop offset="0.00651336" stop-color="white"/>
<stop offset="1" stop-color="white"/>
</linearGradient>
</defs>
</svg>
